<svg xmlns="http://www.w3.org/2000/svg" xmlns:xlink="http://www.w3.org/1999/xlink" version="1.0" width="720" height="504" viewBox="-2100 -1470 4200 2940"><defs><linearGradient x1="88.412" y1="48.357" x2="111.566" y2="48.357" id="g" gradientUnits="userSpaceOnUse"><stop offset="0" stop-color="#c0a062"/><stop offset=".502" stop-color="#ceb27c"/><stop offset="1" stop-color="#ceb27c"/></linearGradient><linearGradient x1="88.394" y1="43.415" x2="111.611" y2="43.415" id="i" gradientUnits="userSpaceOnUse"><stop offset="0" stop-color="#c0a062"/><stop offset=".502" stop-color="#dcc89c"/><stop offset="1" stop-color="#dcc89c"/></linearGradient><linearGradient x1="109.293" y1="78.526" x2="88.659" y2="78.526" id="k" gradientUnits="userSpaceOnUse"><stop offset="0" stop-color="#f5c491"/><stop offset="1" stop-color="#f5c491"/></linearGradient><linearGradient x1="88.647" y1="78.588" x2="102.421" y2="78.588" id="l" gradientUnits="userSpaceOnUse"><stop offset="0" stop-color="#42929d"/><stop offset="1" stop-color="#42929d"/></linearGradient><linearGradient x1="111.327" y1="76.4" x2="98.325" y2="76.4" id="m" gradientUnits="userSpaceOnUse"><stop offset="0" stop-color="#bb825b"/><stop offset="1" stop-color="#bb825b"/></linearGradient><linearGradient x1="94.737" y1="62.577" x2="95.208" y2="62.577" id="n" gradientUnits="userSpaceOnUse"><stop offset="0" stop-color="#c2c1c1"/><stop offset="1" stop-color="#c2c1c1"/></linearGradient><linearGradient x1="94.312" y1="66.702" x2="95.676" y2="66.702" id="o" gradientUnits="userSpaceOnUse"><stop offset="0" stop-color="#c2c1c1"/><stop offset="1" stop-color="#c2c1c1"/></linearGradient><linearGradient x1="94.148" y1="64.77" x2="95.815" y2="64.77" id="p" gradientUnits="userSpaceOnUse"><stop offset="0" stop-color="#c2c1c1"/><stop offset="1" stop-color="#c2c1c1"/></linearGradient><linearGradient x1="93.379" y1="68.677" x2="96.606" y2="68.677" id="q" gradientUnits="userSpaceOnUse"><stop offset="0" stop-color="#c2c1c1"/><stop offset="1" stop-color="#c2c1c1"/></linearGradient><linearGradient x1="94.206" y1="63.207" x2="95.757" y2="63.207" id="r" gradientUnits="userSpaceOnUse"><stop offset="0" stop-color="#c2c1c1"/><stop offset="1" stop-color="#c2c1c1"/></linearGradient><linearGradient x1="88.88" y1="44.97" x2="111.101" y2="44.97" id="s" gradientUnits="userSpaceOnUse"><stop offset="0" stop-color="#968247"/><stop offset=".502" stop-color="#a69464"/><stop offset="1" stop-color="#a69464"/></linearGradient><linearGradient xlink:href="#g" id="t" gradientUnits="userSpaceOnUse" x1="88.412" y1="48.357" x2="111.566" y2="48.357"/><linearGradient xlink:href="#i" id="v" gradientUnits="userSpaceOnUse" x1="88.394" y1="43.415" x2="111.611" y2="43.415"/><linearGradient xlink:href="#k" id="x" gradientUnits="userSpaceOnUse" x1="109.293" y1="78.526" x2="88.659" y2="78.526"/><linearGradient xlink:href="#l" id="y" gradientUnits="userSpaceOnUse" x1="88.647" y1="78.588" x2="102.421" y2="78.588"/><linearGradient xlink:href="#m" id="z" gradientUnits="userSpaceOnUse" x1="111.327" y1="76.4" x2="98.325" y2="76.4"/><linearGradient xlink:href="#n" id="A" gradientUnits="userSpaceOnUse" x1="94.737" y1="62.577" x2="95.208" y2="62.577"/><linearGradient xlink:href="#o" id="B" gradientUnits="userSpaceOnUse" x1="94.312" y1="66.702" x2="95.676" y2="66.702"/><linearGradient xlink:href="#p" id="C" gradientUnits="userSpaceOnUse" x1="94.148" y1="64.77" x2="95.815" y2="64.77"/><linearGradient xlink:href="#q" id="D" gradientUnits="userSpaceOnUse" x1="93.379" y1="68.677" x2="96.606" y2="68.677"/><linearGradient xlink:href="#r" id="E" gradientUnits="userSpaceOnUse" x1="94.206" y1="63.207" x2="95.757" y2="63.207"/><linearGradient xlink:href="#s" id="F" gradientUnits="userSpaceOnUse" x1="88.88" y1="44.97" x2="111.101" y2="44.97"/><radialGradient cx="100" cy="74.106" r="40.57" fx="100" fy="74.106" id="h" gradientUnits="userSpaceOnUse"><stop offset="0" stop-color="#fff"/><stop offset="1" stop-color="#e8e8e7"/><stop offset="1" stop-color="#e8e8e7"/></radialGradient><radialGradient cx="95.849" cy="69.457" r="18.704" fx="95.849" fy="69.457" id="j" gradientUnits="userSpaceOnUse"><stop offset="0" stop-color="#fffcc8"/><stop offset=".4" stop-color="#7fcfd6"/><stop offset="1" stop-color="#00a3e4"/><stop offset="1" stop-color="#00a3e4"/></radialGradient><radialGradient xlink:href="#h" id="u" gradientUnits="userSpaceOnUse" cx="100" cy="74.106" fx="100" fy="74.106" r="40.57"/><radialGradient xlink:href="#j" id="w" gradientUnits="userSpaceOnUse" cx="95.849" cy="69.457" fx="95.849" fy="69.457" r="18.704"/><path id="a" d="M0 0a31.5 35 0 000-70A31.5 35 0 000 0m0-13a18.5 22 0 000-44 18.5 22 0 000 44" fill-rule="evenodd"/><path id="c" d="M-31.5 0h13v-26h28a22 22 0 000-44h-40zm13-39h27a9 9 0 000-18h-27z" fill-rule="evenodd"/><clipPath id="b"><path d="M-31.5 0v-70h63V0zM0-47v12h31.5v-12z"/></clipPath><g id="f" fill="#fff"><g id="e"><path id="d" d="M0-1v1h.5" transform="rotate(18 0 -1)"/><use xlink:href="#d" transform="scale(-1 1)" width="4200" height="2940"/></g><use xlink:href="#e" transform="rotate(72)" width="4200" height="2940"/><use xlink:href="#e" transform="rotate(-72)" width="4200" height="2940"/><use xlink:href="#e" transform="rotate(144)" width="4200" height="2940"/><use xlink:href="#e" transform="rotate(-144)" width="4200" height="2940"/></g></defs><g transform="matrix(.18 0 0 .18 -1722 1205.4)"><path fill="#009b3a" d="M-2100-14863.333h23333.332V1470H-2100z"/><path d="M-116.667-6696.667L9566.666-513.333 19250-6696.667 9566.666-12880z" fill="#fedf00"/><circle transform="matrix(5.55556 0 0 5.55556 9566.666 -6696.667)" r="735" fill="#fff"/><g fill-rule="evenodd"><path d="M10993.834-8909.222c-947.918-149.003-1909.107-132.264-2857.135 6.556l-77.557 11.364 329.018-780.918 24.152-3.936c379.835-61.827 763.674-104.197 1148.882-105.464 385.972-1.34 770.883 40.574 1151.15 104.333l23.695 3.972 337.225 776.565-79.417-12.472h-.013z" fill="#5b4431"/><path d="M109.235 51.111l-.281-1.114.043.005a65.88 65.88 0 012.049.25l.017.002.503 1.162a72.882 72.882 0 00-2.331-.305zm1.636-1.184a71.175 71.175 0 00-4.923-.484l-.024-.002-.178-1.07.038.003c1.559.112 3.115.274 4.663.495l.016.003.46 1.062-.052-.007zm-.6-1.384a64.873 64.873 0 00-1.718-.216l-.021-.002-.276-1.093.043.005c.51.061 1.02.128 1.528.201l.016.003.481 1.11-.053-.008zm-.62-1.432a65.72 65.72 0 00-4.167-.45l-.024-.001-.187-1.123.04.005c1.315.142 2.625.329 3.93.548l.016.003.445 1.026-.053-.008zm-4.686-1.606l.189 1.132-.038-.002a70.834 70.834 0 00-4.911-.176h-.03v-1.213h.03c1.582.004 3.163.097 4.737.257l.023.002zm-5.09-.258l.001 1.213h-.03a73.991 73.991 0 00-4.964.185l-.038.002.189-1.131.023-.002c1.591-.16 3.19-.258 4.789-.267h.03zm-5.15.301l-.187 1.122-.024.002a70.179 70.179 0 00-4.225.449l-.052.007.431-1.026.017-.003a73.582 73.582 0 014-.547l.04-.004zm-4.606 1.898c.523-.073 1.047-.14 1.572-.202l.043-.005-.283 1.119-.02.002a71.82 71.82 0 00-1.755.217l-.051.007.477-1.135.017-.003zm-.612 1.456a73.532 73.532 0 014.704-.498l.038-.003-.178 1.07-.024.001c-1.655.11-3.307.27-4.951.486l-.052.006.446-1.06.017-.002zm-.58 1.38a73.868 73.868 0 012.06-.247l.043-.005-.288 1.147c-.777.087-1.554.185-2.33.292l.498-1.185.017-.002zm2.132.86l.287-1.144.021-.002a84.99 84.99 0 015.545-.37h.034l-.101 1.072a88.9 88.9 0 00-5.786.444zm6.087-.456l.101-1.07.027-.001a96.282 96.282 0 015.442-.017h.027l.1 1.057a81.907 81.907 0 00-5.697.03zm5.998-.022l-.1-1.057h.034a78.55 78.55 0 015.538.355l.021.003.28 1.111a76.21 76.21 0 00-5.773-.412zm4.795-3.47l.276 1.096-.043-.004a72.304 72.304 0 00-5.244-.36h-.026l-.093-1.117.033.001c1.696.065 3.39.19 5.076.383l.02.002zm-5.431-.396l.093 1.119-.033-.001a82.836 82.836 0 00-4.96.01l-.219.008.094-1.128.027-.001a72.547 72.547 0 014.971-.008l.027.001zm-5.326.019l-.094 1.128h-.026a78.5 78.5 0 00-5.251.374l-.043.004.283-1.12.02-.002a71.116 71.116 0 015.077-.383l.034-.001zm-2.603 1.56a81.503 81.503 0 015.266-.193h.03l.001 1.086h-.03a92.521 92.521 0 00-5.431.179l-.038.002.179-1.071.023-.002zm5.625-.194a77.501 77.501 0 015.212.166l.023.002.179 1.071-.038-.002a88.254 88.254 0 00-5.375-.151h-.03v-1.086h.03z" fill="url(#t)" transform="matrix(123.22304 0 0 122.99083 -2755.639 -15306.024)"/><path d="M9563.954-9458.29c72.96 0 113.304 53.858 132.662 112.844l92.282 281.133c-88.363-.849-337.471-3.53-425.847-2.03l68.475-279.103c14.8-60.314 59.542-112.844 132.428-112.844z" fill="#5b4431"/><path d="M9308.895-9099.66c5.631-53.465 9.858-106.646 19.062-159.729 23.351-134.663 80.403-269.215 239.09-269.215 53.96 0 103.655 15.436 144.072 51.94 95.745 86.499 101.573 255.919 114.043 375.884l4.289 41.153-41.453-.59a9787.772 9787.772 0 00-46.59-.554l-33.11-.308-3.204-32.9c-4.67-47.794-7.048-95.379-14.442-142.94-11.287-72.54-34.108-169.42-124.886-169.42-20.862 0-39.937 4.945-56.535 17.896-67.243 52.468-69.88 216.353-76.953 295.006l-2.957 32.961-33.147.517c-16.623.27-33.246.565-49.869.91l-41.772.86 4.362-41.472z" fill="#5b4431"/><path d="M9395.582-9096.721c10.696-118.883 10.955-346.392 170.184-346.392 163.85 0 164.145 224.053 175.987 345.58 15.587.135 31.175.332 46.775.541-15.76-151.512-20.825-394.837-221.48-394.837-196.147 0-205.845 247.15-221.507 396.018 16.672-.357 33.37-.652 50.041-.91z" fill="#dcc89c"/><path d="M9528.158-3271.125c-94.5-182.715-322.697-338.582-494.063-444.28-257.154-158.61-532.903-293.825-799.298-436.827-256.12-137.491-520.42-286.224-747.915-467.574-195.37-155.73-380.895-351.446-455.494-594.857-23.03-75.172-34.7-152.583-34.7-231.174 0-365.7 127.265-694.234 263.82-1027.084 101.759-248.06 247.15-564.86 216.824-837.518-30.904-277.8-225.252-468.645-449.789-613.393l-39.825-25.668 750.44-964.47 16.45-2.803c1202.695-204.657 2424.032-231.223 3625.075.16l15.846 3.062 750.083 964.051-39.825 25.668c-224.562 144.748-418.872 335.593-449.764 613.393-30.338 272.658 115.053 589.458 216.823 837.518 136.556 332.862 263.82 661.383 263.82 1027.084 0 78.591-11.669 156.002-34.711 231.174-74.587 243.41-260.112 439.126-455.482 594.857-227.495 181.35-491.808 330.083-747.927 467.574-266.396 143.002-542.144 278.218-799.286 436.827-171.379 105.698-399.576 261.565-494.063 444.28l-38.52 74.458-38.507-74.458h-.012z" fill="#3f4446"/><path d="M100 97.692c-2.93-5.675-20.505-9.01-20.505-17.522 0-8.512 8.878-14.767.09-20.442l5.769-7.434c10.344-1.763 20.097-1.774 29.292 0l5.769 7.434c-8.788 5.675.09 11.93.09 20.442S102.929 92.017 100 97.692z" fill="url(#u)" transform="matrix(123.22304 0 0 122.99083 -2755.639 -15306.024)"/><path d="M9536.414-3609.006c-115.325-112.007-251.659-205.333-388.214-289.57-262.145-161.683-539.335-297.71-810.574-443.307-359.996-193.256-972.957-524.052-1099.075-935.64-16.759-54.695-25.286-111.135-25.286-168.314 0-332.542 123.42-642.59 247.752-945.64 119.675-291.71 263.71-620.574 227.865-942.675-29.192-262.487-170.098-467.328-368.708-634.362l-31.915-26.837 568.502-720 16.622-2.718c1122.624-183.158 2264.372-206.92 3385.824-1.858l16.106 2.952 569.783 721.624-31.927 26.837c-198.599 167.034-339.504 371.875-368.708 634.362-35.846 322.1 108.202 650.966 227.876 942.676 124.32 303.049 247.753 613.097 247.753 945.64 0 509.956-733.794 894.278-1124.374 1103.953-271.226 145.596-548.416 281.624-810.56 443.308-136.569 84.236-272.89 177.562-388.227 289.57l-30.252 29.382-30.25-29.383h-.013z" fill="#3f4446"/><path d="M9566.665-3639.864c119.453-116.017 263.155-213.635 395.657-295.363 261.874-161.523 541.602-299.027 812.816-444.611 366.367-196.675 1101.614-578.721 1101.614-1066.023 0-326.025-122.68-632.32-244.536-929.344-123.05-299.938-267.653-632.738-230.821-963.707 30.978-278.463 181.372-492.283 383.802-662.527l-533.839-676.117c-1117.35-204.313-2252.184-180.538-3370.988 2.005l-532.262 674.112c202.431 170.244 352.825 384.064 383.803 662.527 36.831 330.969-107.759 663.77-230.821 963.707-121.856 297.023-244.537 603.32-244.537 929.344 0 53.045 7.85 105.021 23.4 155.755 121.572 396.732 735.346 726.212 1078.227 910.268 271.201 145.584 550.942 283.088 812.816 444.611 132.502 81.728 276.204 179.346 395.657 295.363h.012z" fill="#00923e"/><path d="M8728.01-10021.305v-24.254-108.268l39.874-3.924c106.28-10.466 212.745-19.223 319.333-26.123l47.07-3.05 141.103 133.568 88.327-2.546v-26.222-113.029l43.72-.479a16681.592 16681.592 0 01318.679-.504l43.867.356V-10056.849l89.67 2.201 139.747-132.276v-1.415l46.997 2.964c106.6 6.703 213.09 15.325 319.394 25.742l39.887 3.924v134.183l229.43-104.223 51.519 8.622a10419.725 10419.725 0 01319.48 58.58l35.538 7.097v178.644l-5.04 9.618-75.326 161.77-90.027 78.32-15.058 11.39-18.656-2.977c-380.143-60.843-762.393-97.716-1147.453-104.075-463.811-7.65-922.965 29.481-1381.01 101.382l-18.458 2.902-14.935-11.192-105.836-78.64-72.727-159.372-4.793-9.42v-10.566-65.775-102.156l35.722-6.974c106.095-20.724 212.499-39.898 319.197-57.29l51.335-8.363 229.43 102.92z" fill="#5b4431"/><path d="M90.973 43.646a81.94 81.94 0 012.58-.32v-.555-.555a77.002 77.002 0 012.58-.211v1.121c.858-.04 1.717-.07 2.579-.089v-.563-.564c.859-.01 1.718-.011 2.58-.004v1.125c.858.015 1.717.042 2.579.08v-.56-.559c.859.055 1.718.124 2.58.209v1.104c.858.094 1.717.203 2.579.327v-.544-.545c.858.144 1.72.302 2.581.474V44.088c-.147.28-.294.561-.44.843l-.014-.002c-3.813-.605-7.634-.957-11.496-.945-3.641.01-7.245.345-10.838.92l-.007.008c-.142-.275-.282-.55-.422-.824v-.535-.535a83.287 83.287 0 012.58-.464v1.092z" fill="url(#v)" transform="matrix(123.22304 0 0 122.99083 -2755.639 -15306.024)"/><path fill="#fff" d="M7978.382-7768.703l-43.744 142.226-142.41-.295 115.374 87.607-44.274 142.066 115.054-88.086 115.053 88.086-44.274-142.066 115.374-87.607-142.41.295zM7858.51-6802.032l-43.744 142.226-142.409-.282 115.374 87.618-44.274 142.042 115.053-88.061 115.054 88.061-44.274-142.042 115.373-87.618-142.408.282zM7703.299-5935.87l-43.745 142.24-142.408-.308 115.361 87.619-44.262 142.042 115.054-88.061 115.04 88.061-44.261-142.042 115.374-87.619-142.41.308zM9557.288-4428.666l-43.744 142.24-142.41-.308 115.375 87.618-44.262 142.067 115.04-88.086 115.103 88.086-44.36-142.067 115.46-87.618-142.446.307zM10416.165-4780.112l-43.621 142.251-142.446-.283 115.337 87.594-44.237 142.067 114.967-88.086 115.09 88.086-44.237-142.067 115.337-87.594-142.446.283zM8690.167-4780.112l43.744 142.251 142.41-.283-115.374 87.594 44.261 142.067-115.04-88.086-115.054 88.086 44.262-142.067-115.362-87.594 142.397.283zM8007.24-5241.844l43.745 142.214 142.409-.283-115.374 87.619 44.274 142.042-115.053-88.086-115.041 88.086 44.261-142.042-115.373-87.619 142.408.283z"/><path fill="#3f4446" d="M11339.475-4704.719l-3712.304-3705.27 38.828-44.45 3720.054 3713.02z"/><path d="M9566.468-8358.96c298.988 0 576.893 87.212 813.58 270.567 1100.37 852.474 826.05 3406.698-813.58 3406.698-305.58 0-589.154-89.992-829.082-280.05-1086.482-860.702-795.848-3397.228 829.082-3397.228v.012z" fill="#3f4446"/><path d="M9566.468-8281.477c1856.256 0 1868.468 3522.298 0 3522.298s-1856.269-3522.298 0-3522.298z" fill="#3f4446"/><path d="M111.321 71.985H88.667c-.187-7.339 3.601-14.87 11.327-14.87 7.725 0 11.513 7.531 11.327 14.87z" fill="url(#w)" transform="matrix(123.22304 0 0 122.99083 -2755.639 -15306.024)"/><path d="M8169.624-6546.519h785.399v33.724h-785.917v-7.514h.26c.011-8.745.16-17.477.258-26.21z" fill="#b49700"/><path d="M8176.266-6700.602l782.515 154.957-6.58 33.084-778.215-154.107c.678-11.328 1.442-22.63 2.28-33.934zM8193.48-6861.019l768.813 316.972-12.901 31.179-760.52-313.566a2651.017 2651.017 0 014.608-34.585z" fill="#b49700"/><path d="M8224.544-7034.362l740.879 492.566-18.73 28.067-729.628-485.088a2272.382 2272.382 0 017.48-35.545z" fill="#b49700"/><path d="M8275.793-7227.285l692.28 688.318-23.857 23.885-679.575-675.687a2323.87 2323.87 0 0111.152-36.516z" fill="#b49700"/><path d="M8358.303-7444.88l611.802 909.16-28.045 18.817-599.764-891.277a1875.738 1875.738 0 0116.007-36.7z" fill="#b49700"/><path d="M8489.03-7685.168l482.43 1153.076-31.187 12.988-473.337-1131.331a1594.922 1594.922 0 0122.094-34.733z" fill="#b49700"/><path d="M8687.962-7929.28l284.127 1400.989-33.11 6.69-279.605-1378.74c9.402-9.79 18.915-19.456 28.588-28.939z" fill="#b49700"/><path d="M8965.743-8135.167l6.223 1610.725-33.788.135-6.149-1591.931a1183.876 1183.876 0 0133.714-18.929z" fill="#b49700"/><path d="M9309.375-8257.469L8971.091-6520.69l-33.16-6.432 335.574-1722.892c11.854-2.657 23.832-5.117 35.87-7.454z" fill="#b49700"/><path d="M9689.518-8276.102l-720.016 1758.929-31.274-12.754 715.876-1748.807c11.879.75 23.696 1.611 35.414 2.632z" fill="#b49700"/><path d="M10070.647-8181.374L8967.222-6514.037l-28.206-18.584 1099.84-1661.913a1188.47 1188.47 0 0131.791 13.16z" fill="#b49700"/><path d="M10404.828-7965.784L8964.45-6511.393l-24.04-23.712 1439.023-1453.014c8.552 7.33 17.03 14.771 25.396 22.335z" fill="#b49700"/><path d="M10660.146-7657.876L8961.135-6509.351l-18.952-27.919 1699.776-1149.054a1571.345 1571.345 0 0118.187 28.448z" fill="#b49700"/><path d="M10832.289-7297.87L8957.574-6507.96l-13.148-31.08 1876.292-790.56c3.943 10.528 7.8 21.105 11.57 31.731z" fill="#b49700"/><path d="M10930.251-6914.569l-1976.485 407.247-6.839-33.035 1977.594-407.468a2128.384 2128.384 0 015.73 33.256z" fill="#b49700"/><path d="M10962.659-6522.917l-2012.713 15.485-.271-33.724 2012.664-15.485c.246 11.242.246 22.483.37 33.724z" fill="#b49700"/><path d="M8955.072-7036.502c284.682 0 515.565 229.722 515.565 512.995H8439.495c0-283.273 230.883-512.995 515.577-512.995z" fill="#b49700"/><path d="M8955.072-6992.324c261.332 0 473.263 204.842 473.263 457.428h-946.538c0-252.586 211.931-457.428 473.275-457.428z" fill="#f8c100"/><path d="M100.57 75.732c-.365-.837 1.89-2.425 2.241-3.108.682-1.324-3.747-1.042-3.626-1.134l-10.446-.057c.033.001 0 .026-.08.07.001.545.026 1.09.07 1.632 2.624.086 6.005-.072 6.088.433.023.137.567-.146.436 0-1.2 1.35.287 3.68 1.806 4.874 4.721 3.713 2.995 5.8-.829 6.639 1.129.432 2.382.672 3.764.672 4.36 0 7.455-2.37 9.299-5.744-2.828-1.136-7.612-1.73-8.723-4.277z" fill="url(#x)" transform="matrix(123.22304 0 0 122.99083 -2755.639 -15306.024)"/><path d="M8169.76-6556.592c444.576.099 889.128-.651 1333.68-.651h240.186l-229.146 71.863c-120.02 37.635-273.025 104.1-308.97 238.012-27.145 101.172 16.057 222.109 56.338 314.29 58.938 134.885 135.496 264.173 201.371 396.117 120.352 241.075 224.34 517.373 102.066 777.757-946.649-.38-1410.017-905.077-1395.526-1797.388z" fill="#3f4446"/><path d="M99.487 71.433c-7.547 2.37 2.935 8.838.174 14.31-7.357-.208-11.014-7.257-11.003-14.31h10.829z" fill="url(#y)" transform="matrix(123.22304 0 0 122.99083 -2755.639 -15306.024)"/><path d="M10271.994-6948.465c197.415-21.02 169.468-421.268 520.851-425.007 3.685-.037 7.307.074 10.942.246 109.386 272.744 162.174 581.304 158.342 888.572H9499.792l16.228-48.434c29.093-86.869 95.695-184.806 152.76-256.006 45.716-57.03 99.269-114.664 157.442-159.187 44.015-33.674 106.181-71.371 164.12-62.024 39.937 6.457 80.145 17.219 119.231 27.649 34.552 9.224 129.459 37.696 162.42 34.191z" fill="#3f4446"/><path d="M10275.937-6911.912c-53.996 5.744-198.02-47.032-291.435-62.11-127.807-20.614-378.972 289.79-433.499 452.581h1411.68c-.616-280.665-48.746-561.133-143.8-813.203-8.454-1.402-16.98-2.165-25.606-2.066-329.955 3.505-289.464 400.532-517.34 424.798z" fill="#00923e"/><path d="M8703.18-5500.027c-152.896-311.376-152.378-615.876 173.99-799.772l114.24-64.361-63.964 114.32c-23.955 42.825-37.645 89.033-32.655 138.364 15.17 149.902 211.944 303.136 321.6 389.857l61.772 48.84-77.162 15.988c-151.811 31.449-315.809 79.526-443.307 170.502l-35.378 25.226-19.136-38.964z" fill="#3f4446"/><path d="M8736.265-5516.225c-176.505-359.453-99.404-605.938 159.02-751.56-117.63 210.266 50.287 378.898 298.236 574.97-175.15 36.295-334.07 88.714-457.256 176.59z" fill="#fff"/><path d="M9133.881-5508.365h-80.366c.382-1.489.58-3.038.58-4.637v-44.13c0-10.22-8.405-18.57-18.67-18.57h-44.347c-10.277 0-18.668 8.35-18.668 18.57v44.13c0 1.599.221 3.148.603 4.637H8652.29v-27.87h-62.61v27.87h-70.311c-18.274 14.365-18.274 32.162 0 53.415 197.477 32.998 402.323 32.986 614.513 0 18.262-17.81 18.262-35.619 0-53.415zM10584.98-5268.804c-304.78-157.674-726.708-191.324-962.36-440.38-239.298-252.895-283.548-535.43-96.212-830.927l11.004-17.354 1424.927 16.911c4.522 465.46-121.018 932.59-377.359 1271.75z" fill="#3f4446"/><path d="M99.925 71.433c-1.037 1.64-1.6 3.907.746 6.39 1.86 1.97 5.269 2.231 7.773 3.543 1.906-2.66 2.865-6.223 2.883-9.798l-11.401-.135z" fill="url(#z)" transform="matrix(123.22304 0 0 122.99083 -2755.639 -15306.024)"/><path d="M10962.536-6513.89l-743.947.013h-128.066l108.486-67.928c97.149-60.819 169.58-133.088 246.816-216.12 50.151-53.894 114.4-128.697 190.022-143.173 15.785-3.013 31.754-3.517 47.7-1.623 41.735 4.98 83.643 13.27 124.861 21.412 35.686 7.023 71.433 14.415 107.315 20.368 5.151.86 10.918 1.832 16.968 2.78 19.851 126.323 29.956 255.279 29.845 384.272z" fill="#3f4446"/><path d="M10938.507-6860.305c-71.937-9.434-181.963-36.651-259.31-45.876-135.78-16.21-210.317 198.852-460.596 355.554l743.503-.012c-1.454-103.853-9.204-207.535-23.597-309.666z" fill="#00923e"/><path fill="#f8c300" d="M8854.707-7472.886h187.09v98.922h-187.09z"/><path d="M8947.149-7674.837c36.19 0 65.53 29.198 65.53 65.21 0 36-29.34 65.198-65.53 65.198s-65.53-29.198-65.53-65.198c0-36.012 29.34-65.21 65.53-65.21z" fill="#3f4446"/><path d="M94.972 62.342a.235.235 0 110 .47.235.235 0 010-.47z" fill="url(#A)" transform="matrix(123.22304 0 0 122.99083 -2755.639 -15306.024)"/><path fill="#3f4446" d="M8826.933-6867.61l28.402-469.383h188.507l28.908 469.382z"/><path fill="url(#B)" d="M94.312 68.315l.195-3.226h.971l.198 3.226z" transform="matrix(123.22304 0 0 122.99083 -2755.639 -15306.024)"/><path fill="#3f4446" d="M8809.04-7410.332h278.435v140.75h-278.434z"/><path fill="url(#C)" d="M94.148 64.493h1.667v.553h-1.667z" transform="matrix(123.22304 0 0 122.99083 -2755.639 -15306.024)"/><path fill="#3f4446" d="M8827.894-7194.594h357.125v670.386h-470.75v-670.386h113.625z"/><path fill="url(#D)" d="M93.379 66.247h.461v.46h.461v-.46h.461v.46h.461v-.46h.461v.46h.461v-.46h.461v4.86H93.38v-4.4z" transform="matrix(123.22304 0 0 122.99083 -2755.639 -15306.024)"/><path d="M8947.654-6746.945c30.855 0 53.43 30.527 53.43 64.165v131.403h-106.86v-131.403c0-33.65 22.575-64.165 53.43-64.165zM8999.001-6856.259h-98.714v-96.61h98.714zM8731.792-7034.755h435.926v37.942h-435.926zM8731.792-6822.83h435.926v37.967h-435.926zM8967.259-7483.955v100.902h-38.027v-100.902z" fill="#3f4446"/><path d="M8948.246-7609.233c62.227 0 132.107 39.701 132.107 108.072v45.998h-264.202v-45.998c0-68.37 69.867-108.072 132.095-108.072z" fill="#3f4446"/><path d="M94.981 62.876c.427 0 .776.262.776.583v.078h-1.551v-.078c0-.32.349-.583.775-.583z" fill="url(#E)" transform="matrix(123.22304 0 0 122.99083 -2755.639 -15306.024)"/><path fill="#3f4446" d="M8881.323-7484.828v101.775h-38.026v-101.775zM9053.195-7483.955v100.902h-38.015v-100.902z"/><g><path d="M9636.286-7727.649c125.182-2.423 248.824 9.224 367.155 52.443 101.487 37.045 190.17 94.2 268.417 168.375l57.274 54.325-269.636 30.55-12.705-14.254c-116.68-130.887-264.609-153.726-423.936-200.13-27.64-8.056-80.896-15.534-75.24-56.687 5.68-41.226 59.763-34.056 88.671-34.622z" fill="#3f4446"/><path d="M9637.025-7690.862c121.301-2.35 239.965 8.646 353.774 50.18 88.523 32.322 174.114 83.154 255.712 160.528l-172.18 19.506c-124.701-139.89-280.59-164.242-441.125-211.003-67.33-19.617-64.656-17.908 3.82-19.211z" fill="#fff"/><path d="M10458.184-7609.676c23.203 13.455 40.626 41.19 42.389 67.091 19.85 28.608 20.565 76.206-11.337 96.88-52.062 33.761-106.539 37.291-159.648 54.116 26.567 84.298 70.853 166.432 68.02 256.854-.494 17.49-2.12 34.967-4.56 52.32-17.56 125.697-79.282 236.586-100.994 358.531-4.3 24.143.247 72.639-40.022 74.016-40.947 1.39-39.21-46.675-43.473-70.72-15.182-85.626-21.528-175.052-31.102-261.613-8.909-80.572-25.864-236.88-71.026-308.265-30.005-18.436-62.19-33.133-95.411-44.78l-.863-.283-.74-.32c-21.785-8.806-51.506-12.668-75.794-14.882-23.572 5.891-51.642 9.064-74.907 15.472l-55.943 15.41 9.833-57.08c4.584-26.787 14.392-53.34 25.42-78.295 21.7-49.123 60.282-82.724 115.633-78.591l169.136-35.139 5.052.345c29.747 2.066 61.674-5.904 89.596-15.571 31.101-10.725 60.897-24.82 90.581-38.964 22.575-10.774 51.79-25.815 76.238-30.55 29.943-5.806 62.018 16.407 73.934 44.018z" fill="#3f4446"/><path d="M10125.358-7531.909c100.378 6.961 218.154-76.402 265.99-85.663 16.154-3.136 45.26 24.094 31.052 37.82-9.217 8.88-63.62 29.148-79.072 37.327-10.216 5.363 76.681-40.304 88.166-38.57 24.275 3.678 39.32 43.773 28.55 52.185 0 0-77.445 21.056-100.784 31.732-21.453 9.802 64.532-29.985 100.784-31.732 13-.615 27.64 40.33 9.218 52.272-54.502 35.347-126.71 36.921-184.231 62.516 21.835 87.63 78.665 187.585 75.844 278.144-4.436 141.267-81.476 273.396-105.011 405.574-9.205 51.73-.37 63.217-10.955 3.296-30.571-172.384-32.333-476.983-112.145-590.417-32.654-20.872-69.153-38.373-109.447-52.505-21.268-8.585-52.185-14.574-92.787-17.981-21.958 6.039-63.3 14.845-85.245 20.896 7.073-41.067 33.245-139.349 110.445-129.632l169.628-35.262z" fill="#fff"/><path d="M9948.164-7429.925c9.365.726 17.473-6.641 18.187-16.432.616-9.863-6.309-18.374-15.698-19.112-9.328-.738-17.461 6.654-18.139 16.456-.739 9.84 6.322 18.375 15.65 19.088zM10262.013-7185.973l74.92 256.965-22.92 24.402-80.342-273.139zM10295.406-7241.085l77.63 162.803-14.786 34.733-89.46-184.88zM10459.046-7581.536l-122.73 58.667-12.569-26.59 105.603-49.886zM10485.786-7509.488l-132.465 31.4-6.654-28.67 125.81-30.501z" fill="#3f4446"/></g><g><path d="M10075.33-5810.16c14.454-57.744 29.117-104.948 56.72-153.136l-68.155 68.038-20.837-20.797 54.341-54.264c-39.813 23.614-74.057 54.423-104.48 92.55l-1.677 7.86.247 9.655 12.716 129.324 63.904-67.312 4.793-5.19 2.342-6.322.123-.406zm177.798-91.788c1.528 57.252 3.266 114.455 5.102 171.695l26.678-61.84-.025-3.64-1.245-2.067c-10.018-37.524-18.298-71.556-30.51-104.148zm7.357 240.865c5.372 163.11 11.127 326.233 14.441 489.405l.617 30.01h-168.84l17.67-526.032-23.24-53.907 1.109 84.495-29.475.381-.986-80.399-28.662 75.885-27.577-10.38 30.387-80.46-56.88 59.92-21.391-20.232 9.734-10.257-8.54-86.795-22.45 84.47-28.49-7.551 21.885-82.281-48.193 69.207-24.2-16.788 53.663-77.079-74.131 47.61-15.945-24.746 69.596-44.695-23.486 4.895-8.478 15.018-17.19-9.667-31.495 6.567-6.026-28.804 8.466-1.759-17.72-16.911 71.506-74.643-87.525 51.053-14.86-25.41 95.99-55.973-107.302 24.106-6.482-28.693 88.462-19.888-90.581-3.136.985-29.395 101.019 3.493-96.977-31.67 9.168-27.956 96.212 31.4-50.73-34.29-7.739 1.23-1.109-7.245-25.79-17.427 16.536-24.365 25.027 16.924 64.359-10.196-93.477-10.233 3.216-29.247 105.997 11.61-95.683-41.51 11.755-26.984 96.385 41.83-79.441-68.605 19.272-22.249 78.998 68.21-56.338-90.447 21.429-13.307 5.693-13.91 30.226 12.348-3.179-12.066 12.421-3.271-24.2-17.895 17.558-23.64 92.011 68.04-68.105-88.665 23.387-17.907 74.28 96.708-40.825-113.201 27.726-9.962 34.379 95.33-8.91-100.791 29.365-2.583 9.82 111.122 21.885-110.483 28.92 5.707-21.699 109.536 32.482-62.935-10.672-20.674 26.198-13.48 1.109 2.042 3.216-6.224 26.197 13.48-12.84 24.856 34.65 67.129-21.7-109.548 28.91-5.707 21.896 110.495 9.808-111.134 29.364 2.582-8.896 100.804 34.379-95.343 27.725 9.975-40.836 113.213 74.303-96.72 23.388 17.895-68.105 88.664 91.998-68.026 17.547 23.639-19.247 14.23 10.387 2.742-4.078 15.424 28.205-11.512 3.845 9.371 1.232-1.881 25.027 15.533-56.338 90.448 78.986-68.21 19.285 22.248-79.442 68.605 96.385-41.83 11.755 26.985-95.682 41.509 105.996-11.61 3.216 29.247-93.477 10.233 71.889 11.389 26.788-18.117 16.537 24.365-36.203 24.462-.025.21-.246-.037-48.957 33.096 96.2-31.4 9.168 27.957-96.976 31.67 101.03-3.493.986 29.395-90.581 3.136 88.474 19.888-6.482 28.693-107.315-24.106 96.004 55.973-14.874 25.41-87.513-51.041 71.495 74.63-17.708 16.912 8.453 1.759-6.025 28.804-31.496-6.567-17.19 9.667-8.465-15.018-23.499-4.895 69.597 44.695-15.945 24.746-74.131-47.61 53.663 77.079-24.2 16.788-48.193-69.207 21.884 82.28-28.489 7.552-22.451-84.47-8.54 86.795 9.747 10.257-21.391 20.232-56.892-59.933 30.387 80.473-27.578 10.38-28.65-75.86-.985 80.374-29.475-.381 1.11-84.495-26.112 60.524zm-133.796-75.64l5.311-158.4c-10.782 27.317-18.927 55.715-26.936 87.435-.74 3.21-1.54 6.26-2.625 9.384l.37 6.211 23.892 55.37zm248.307-381.136c-25.113 10.06-55.056 23.922-83.065 40.907l93.822-16.026 4.979 29.002-79.874 13.64c38.052 1.23 75.782 7.145 111.64 19.161l3.771 1.12 4.202-1.255 99.392-67.215-136.15-21.56-10.892-1.463-7.825 3.69zm-133.525 39.677c38.668-29.727 86.318-52.726 125.503-68.161l4.3-2.288.74-4.674 29.142-110.298-111.75 45.605-6.482 2.657-4.473 6.05c-20.665 31.745-36.314 64.67-48.07 98.996l81.254-93.374 22.254 19.297-92.418 106.19zm153.647 199.184c-32.592-42.198-70.78-74.459-115.916-98.295l61.747 63.943-21.219 20.417-55.216-57.179c21.096 42.604 31.89 86.205 45.297 136.385l2.908 10.663 6.937 4.822 63.904 67.312 12.717-129.324 1.232-10.135-2.354-8.61zm-187.126-256.08c11.595-30.563 26.259-60.056 44.705-88.639l1.442-3.456-.37-4.23-67.083-129.965-64.938 125.77 1.232 7.601c24.472 37.02 42.487 75.578 55.598 115.98l.074-130.087 29.475.012-.061 107.015zm203.453 131.244c-30.929-10.171-63.447-15.435-96.286-16.887l70.631 23.11-9.18 27.956-58.506-19.15c42.031 26.394 78.086 60.561 109.077 103.534l.986 1.44.123.208 63.115 13.16-69.954-123.962-3.66-6.248-6.42-3.161zm-.862-295.4l3.783-14.303-38.52 28.485 34.737-14.181zm24.755 21.672l-13.21 49.983 37.263-59.786-24.053 9.803zm-338.16 64.041l-4.08-5.387-6.998-3.272-109.73-44.793 30.041 113.668 5.04 6.95c43.806 17.255 98.16 43.944 138.75 78.935l.985.172-106.132-109.277 21.17-20.466 80.44 82.834c-12.126-34.45-28.268-67.51-49.524-99.364zm-96.83 94.174l-7.43-2.3-8.206 1.562-128.62 20.38 101.165 68.395 4.202.849 3.882-.53c35.427-11.425 72.726-17.673 110.272-19.321l-79.935-13.664 4.979-29.002 82.707 14.132-83.015-40.5zm70.09 131.071l-59.985 20.195-9.414-27.882 73.884-24.88c-33.59 1.635-66.898 7.231-98.59 17.23l-5.595 3.42-4.535 5.768-69.966 123.962 63.288-13.197 2.39-3.05 3.093-3.185.013-.05.024.013c30.83-39.886 65.456-72.663 105.393-98.344zm-181.532 70.868l-58.026 60.573 27.035-5.646 30.99-54.927zm53.306-363.524l-25.667-10.467 39.751 63.82-14.084-53.353zm24.755-21.671l32.704 13.357-36.265-26.825 3.561 13.468zm562.859 440.122l27.022 5.646-58.025-60.573 31.003 54.927z" fill="#3f4446"/><path d="M10165.899-6025.862l-28.724 854.75h108.289c-5.89-289.582-18.853-565.168-24.731-854.75-21.108-28.829-38.766-22.433-54.834 0z" fill="#3f4446"/><path d="M10165.899-6025.862l-1.393 41.153 58.137 43.711-1.11-46.884-53.798-40.464-1.824 2.484zm-27.085 806.058l-1.515 44.916 5.027 3.776h61.23l-64.742-48.692zm3.02-89.98l-1.504 44.916 104.813 78.837-1.109-46.847-102.25-76.906zm3.03-89.98l-1.515 44.916 99.576 74.889-1.281-47.02-96.78-72.785zm3.02-89.98l-1.504 44.903 93.896 70.634-1.43-47.13-90.962-68.408zm3.018-89.98l-1.503 44.916 87.957 66.144-1.54-47.192-84.914-63.869zm3.032-89.98l-1.516 44.915 81.845 61.545-1.577-47.228-78.752-59.233zm3.019-89.98l-1.504 44.903 75.66 56.908-1.553-47.204-72.603-54.608zm3.031-89.981l-1.516 44.904 69.56 52.333-1.454-47.155-66.59-50.082zm3.019-89.98l-1.516 44.904 63.682 47.893-1.318-47.032-60.848-45.765z" fill="#957f66"/></g><path d="M89.738 45.898c-.327-.245-.532-.394-.859-.64 7.737-1.24 14.417-1.211 22.222.025l-.73.637c-7.039-1.128-13.429-1.155-20.633-.022z" fill="url(#F)" transform="matrix(123.22304 0 0 122.99083 -2755.639 -15306.024)"/><path d="M10488.866-10009.547l146.18-64.582V-9990.483a9401.997 9401.997 0 00-146.18-19.064zm-1990.335-64.582V-9988.577a9944.279 9944.279 0 01150.233-19.174l-150.233-66.378zm719.66 22.74l-83.965-80.73v84.088c27.996-1.205 55.968-2.337 83.964-3.357zm698.76-1.5l82.4-79.23v82.28a11497.95 11497.95 0 00-82.4-3.05z" fill="#dcc89c"/><path d="M8921.568-9139.584c-41.243 3.985-82.658 4.785-123.926 8.204l-110.42 9.114 9.969-110.151c7.923-87.397 22.303-174.044 30.202-261.43l2.095-23.097 12.716-19.42c40.54-61.865 114.167-105.047 189.394-84.9 46.332 12.397 81.143 45.912 99.959 89.352l10.055 23.196-3.093 25.102c-10.868 87.73-22.476 175.349-33.492 263.041l-9.267 73.831-74.192 7.158z" fill="#5b4431"/><path d="M8917.083-9185.853c-40.935 3.948-82.24 4.748-123.285 8.142l-55.204 4.55 4.978-55.074c7.936-87.46 22.291-173.97 30.202-261.417l1.06-11.55 6.346-9.715c29.4-44.868 82.818-80.326 138.355-65.444 32.506 8.708 56.128 32.568 69.276 62.91l5.027 11.598-1.552 12.545c-10.856 87.692-22.452 175.287-33.468 262.954l-4.633 36.922-37.102 3.58z" fill="#dcc89c"/><path d="M8912.597-9232.122c12.051-95.92 21.589-166.935 33.455-262.88-24.336-56.195-87.981-48.336-125.884 9.531-8.81 97.335-21.392 164.095-30.202 261.43 49.572-4.096 84.395-4.391 122.631-8.08zM10187.463-9139.584c41.243 3.985 82.67 4.785 123.925 8.204l110.433 9.114-9.97-110.151c-7.922-87.397-22.302-174.044-30.201-261.43l-2.095-23.097-12.716-19.42c-40.553-61.865-114.179-105.047-189.407-84.9-46.32 12.397-81.142 45.912-99.958 89.352l-10.055 23.196 3.105 25.102c10.856 87.73 22.464 175.349 33.492 263.041l9.267 73.831 74.18 7.158z" fill="#5b4431"/><path d="M10191.899-9185.853c40.934 3.948 82.239 4.748 123.284 8.142l55.217 4.55-4.99-55.074c-7.924-87.46-22.292-173.97-30.203-261.417l-.986-11.55-6.358-9.715c-29.4-44.868-82.806-80.326-138.355-65.444-32.506 8.708-56.128 32.568-69.263 62.91l-5.04 11.598 1.552 12.545c10.856 87.692 22.464 175.287 33.48 262.954l4.633 36.922 37.09 3.58z" fill="#dcc89c"/><path d="M10196.458-9232.122c-12.063-95.92-21.6-166.935-33.467-262.88 24.349-56.195 87.98-48.336 125.884 9.531 8.823 97.335 21.392 164.095 30.202 261.43-49.56-4.096-84.383-4.391-122.619-8.08z" fill="#5b4431"/></g></g></svg>