<svg xmlns="http://www.w3.org/2000/svg" height="1050" width="1500" version="1.0"><path fill="#f3e718" d="M0 918.752h1500.289V1050H0z"/><path fill="#00994c" d="M0 787.504h1500.043v131.248H0z"/><path fill="#f3e718" d="M0 131.265h1499.858v131.247H0zM0 393.76h1500.12v131.248H0zM0 656.256h1500.12v131.248H0z"/><path fill="#00994c" d="M0 .017h1500.12v131.248H0zM0 262.512h1500.12V393.76H0zM0 525.008h1500.12v131.248H0z"/><path fill="#002580" d="M0 .017h522.736V393.76H0z"/><path d="M467.35 356.718l-49.161-35.871-49.161 35.871 18.778-58.041-49.162-35.872h60.767l18.778-58.042 18.778 58.042h60.766l-49.161 35.872 18.778 58.041zM467.35 172.971L418.189 137.1l-49.161 35.871 18.778-58.041-49.162-35.872h60.767l18.778-58.042 18.778 58.042h60.766l-49.161 35.872 18.778 58.041zM153.708 172.971l-49.16-35.871-49.162 35.871 18.778-58.041-49.161-35.872h60.766l18.778-58.042 18.778 58.042h60.766l-49.16 35.872 18.777 58.041zM153.708 356.718l-49.16-35.871-49.162 35.871 18.778-58.041-49.161-35.872h60.766l18.778-58.042 18.778 58.042h60.766l-49.16 35.872 18.777 58.041zM298.239 247.856l-36.871-26.904-36.87 26.904 14.083-43.531-36.871-26.904h45.575l14.083-43.532 14.083 43.532h45.575l-36.87 26.904 14.083 43.53z" fill="#fff"/></svg>