<svg xmlns="http://www.w3.org/2000/svg" width="2000" height="1400" version="1.0"><path fill="#fff" d="M0 0h2000v1400H0z"/><g fill-rule="evenodd"><path d="M1188.64 590.994l6.497-6.844 8.553 2.907-10.224 5.577-4.826-1.64zm-90.774 17.571l11.378-40.446 7.95 2.236 8.957 31.67 7.602-27.005 7.59 2.136-11.385 40.446-8.198-2.31-8.882-30.962-7.422 26.372-7.59-2.137zm101.389 32.95l-8.751-2.97-.404-10.222-15.907-5.398-6.347 7.932-8.522-2.894 29.006-34.528 8.496 2.882 2.429 45.198zm-9.453-20.764l-.472-16.627-10.385 12.944 10.857 3.683zm-118.973-20.633l-9.136-1.372-2.205-9.988-16.615-2.503-4.844 8.932-8.9-1.342 22.433-39.117 8.876 1.335 10.391 44.055zm-12.98-18.763l-3.41-16.28-7.926 14.578 11.335 1.702zm-89.732 4.28l4.193-41.808 17.77 1.783c4.471.447 7.676 1.155 9.626 2.105 1.944.95 3.435 2.448 4.466 4.485 1.019 2.05 1.404 4.298 1.155 6.77-.31 3.137-1.496 5.646-3.54 7.509-2.043 1.845-4.938 2.864-8.658 3.025 1.72 1.248 3.112 2.565 4.174 3.963 1.056 1.397 2.428 3.813 4.118 7.267l4.292 8.67-10.093-1.012-5.193-9.708c-1.845-3.478-3.118-5.664-3.832-6.596-.714-.925-1.503-1.584-2.366-1.994-.87-.403-2.261-.702-4.212-.888l-1.701-.18-1.746 17.46-8.453-.852zm10.87-23.28l6.235.621c4.05.404 6.603.49 7.646.255 1.037-.242 1.888-.758 2.547-1.534.646-.783 1.043-1.796 1.167-3.05.143-1.41-.124-2.578-.788-3.521-.665-.939-1.671-1.59-3.02-1.963-.67-.156-2.72-.41-6.148-.752l-6.584-.658-1.056 10.602zm-42.248 20.025l-9.217-.603-3.038-9.763-16.763-1.094-4.075 9.304-8.98-.584 19.055-40.862 8.956.577 14.062 43.025zm-14.51-17.603l-4.77-15.937-6.676 15.192 11.447.745zm-85.985 13.547l.534-42.018 13.602.174c5.156.062 8.522.323 10.081.764 2.397.658 4.404 2.05 6 4.18 1.596 2.136 2.379 4.876 2.335 8.21-.03 2.584-.528 4.746-1.49 6.485-.963 1.752-2.162 3.118-3.621 4.105-1.454.982-2.926 1.628-4.423 1.933-2.024.372-4.962.546-8.813.496l-5.522-.068-.199 15.844-8.484-.105zm8.925-34.795l-.155 11.913 4.64.056c3.348.043 5.59-.143 6.72-.571 1.13-.423 2.019-1.1 2.677-2.032.646-.931.988-2.012 1-3.254.019-1.521-.416-2.795-1.304-3.8-.876-1-2.013-1.64-3.379-1.901-1.012-.212-3.05-.323-6.106-.361l-4.093-.05z" fill="#008d43"/><path d="M717.11 914.099c-.708 1.267-.708 1.267-.478 4.627.807.255 1.615.51 2.708 1.05 3.13 7.161 6.478 13.69 8.335 21.54 3.478.702 5.286 3.956 8.646 2.826-.373-5.497-2.727-9.025-3.603-14.18-.527.037-1.055.069-1.577.1-2.658-4.119-5.031-7.957-7.41-11.789-.95-2.392-1.646-4.801-2.317-6.9-.186-2.746-.105-5.51-.03-8.274-.808-.255-1.355-.528-1.883-.496-2.44-8.733-.913-17.41-4.937-26.043 4.695-16.547-15.298-26.925-17.994-.392 1.093.54 2.447 1.069 3.808 1.596 4.285 12.596 2.85 14.839-7.261 17.621-.485.646-.975 1.292-1.193 1.92-8.751-4.354-10.223-14.373-3.205-20.031 3.423-11.863 2.913-15.51 10.814-23.67-.124-1.833-.224-3.36-.33-4.883-15.192-5.782-18.235 15.56-16.577 28.329-.788.05-1.316.081-1.844.118-2.783 9.677-10.863 3.447-16.05 1.013-1.465-6.038-1.465-6.038-1.149-9.118 11.31-4.702 12.745-6.938 18.478-19.87 2.77-2.012 5.578-3.422 7.193-6.894-4.137-6.478-20.05-7.31-26.764-5.043-.31-.596-.348-1.205-.391-1.814-6.317.398-12.366.783-18.416 1.162.037.614.08 1.224.143 2.143-8.242-.709-15.167-5.478-22.583-9.603-3.18-.105-6.075.075-8.97.261-1.875-8.155-11.049-14.931-16.44-20.416-1.285-7.272-10.708-25.372-6.099-31.49-2.31-2.919-2.31-2.919-5.33-4.565-1.452-9.714 2.492-13.95 8.212-19.217-1-3-1.733-6.018-2.441-8.733a13.487 13.487 0 011.876-3.49c4.733-.304 8.018 1.33 12.794 1.64-.062-.92-.105-1.528-.142-2.137 7.975.72 13.13 10.51 19.62 4.888-.962-6.379-1.633-12.465-2.31-18.552 2-1.658 4-3.317 6-4.981-1.044-11.578-1.932-20.72-8.863-29.472-16.422-.497-8.553 21.994-10.218 32.521-10.534 8.336-12.111 8.435-22.049-1.664 1.373-3.156 2.764-6 4.162-8.845 10.521-.67 11.16-6.838 13.328-17.708.528-.03 1.056-.061 1.584-.099-.062-.913-.105-1.522-.143-2.136.522-.032 1.05-.069 1.839-.118.764-4.336 4.404-5.18 7.416-7.516-.1-1.527-.205-3.056-.286-4.273-14.161-6.155-23.124 9.739-34.738 13.85-2.957-.732-5.913-1.465-8.584-1.906-2.26-9.975-4.447-11.062 3.398-16.155 6.577-.416 12.005 1.69 18.055 1.304 6.273-4.994 14.205-4.888 21.614-4.739 9.1-6.1-16.577-14.584-17.937-15.112-4.453-3.396-4.453-3.396-17.602-10.223-9.82-.602-16.466-5.087-19.316-15.937-.808-.255-1.354-.528-1.882-.497-.063-.913-.106-1.522-.143-2.136-5.82-3.92-5.174-6.106-5.143-13.467-3.242-5.006-5.168-6.111-6.373-12.16.51-.342 1.013-.678 1.783-1.038l-1.1-4.522c-9.807-4.285-6.602-27.167-7.564-37.527 1.329-3.763 7.08-4.745 10.13-6.471 2.913-3.857 2.913-3.857 4.969-8.59 6.577-.416 13.403 2.832 20.552 2.993.51 3.646 3.31 21.546 9.453 14.72-.074-8.882-.913-13.428 6.534-16.657-.54-7.932-4.956-10.72-8.304-17.249-3.764-.987-3.764-.987-8.987-.043-3.926-11.093-1.9-12.447 7.403-15.49 2.472 1.379 4.97 3.056 7.72 4.72 2.237 5.683 1.032 11.28 4.827 16.553 1.273-.69 2.807-1.404 4.347-2.112.2-.932.423-1.56.646-2.187.522-.037 1.05-.068 1.578-.099-.981-6.683-1.186-21.385-4.957-26.353 1.156-10.186 1.156-10.186 2.976-14.597 4.714-.602 8.217.398 11.844 3.237l.783 11.595c-8.286 6.348-6.963 10.249-5.652 21.814-.528.03-1.056.068-1.584.1.05 4.596.05 4.596 1.025 7.29 1.863.187 7.378.989 9.26 1.479 7.441-7.211 9.615-18.08 19.77-20.254-.348-1.205-4.342-3.019-4.67-3.92-2.628.168-1-.776-3.616-.304-.006-3.98-4.26-2.87-3.378-5.378 8.099-1.435 18.59 1.273 15.428 13.124-5.522 4.329-11.739 2.273-16.528 9.626-1.025 4.354-2.03 9.02-2.77 13.659 2.981 5.024 7.124 15.49 13.44 15.092.305.59.895 1.472 1.48 2.355.527-.032 1.055-.069 1.844-.118 1.503 6.652 3.28 13.28 5.068 20.217 5.708 2.397 5.708 2.397 7.174 4.447 8.695-4.23-1.982-9.683-5.124-13.161-.41-6.106-.566-12.224-.715-18.341 3.944-4.237 6.466-9.914 12.863-9.094 18.801 12.292 17.603 10.224 18.429 34.08 1.571 7.565 3.62 14.484-2.95 18.882-1.063 7.733 2.738 5.341 1.863 11.838-.528.031-1.056.069-1.584.1-4.23 15.595-15.298 31.62-27.13 40.34-2.646 3.845-2.646 3.845-4.18 4.553.043.615.08 1.224.124 1.832-2.304 1.069-4.348 2.118-6.391 3.168-4.428 16.521 6.13 12.484 15.372 8.521 4.416-12.844 9.659-13.484 21.08-8.689 1 3 2.255 5.987 3.535 9.28-6.354 15.421-26.813 2.006-37.086 10.316-4 7.304-2.286 17.006 1.894 24.093 11 6.354 21.111 15.217 30.57 2.664 1.112-3.137 2.218-6.273 3.348-9.099 7.367-.472 28.621 12.894 33.59 19.938 1.782 14.595 8.223 31.657 17.105 41.824 1.28 3.293 1.988 6.007 1.714 9.702-7.788 17.652-17.484 34.515-17.962 54.775 1.845-.118 3.95-.248 6.056-.384-.087-1.218-.15-2.137-.211-3.05.527-.038 1.055-.069 1.844-.118.516-8 3.218-14.92 9.348-18.062.037.609.08 1.217.143 2.137 3.44.087 3.44.087 9.98 3.043 3.845 9.87-2.291 9.03-3.415 15.85-15.522.982-14.49.61-21.515 17.914 1.118 16.477 19.372 1.223 24.577 15.607 1.012-.677 2.285-1.372 3.559-2.067 2.583-8.746 14.857-3.088 19.186-17.156 1.826-.422 15.937 5.125 24.744 6.404 7.193 4.752 5.938 17.397 16.429 20.105.341 1.205.69 2.41 1.056 3.92.527-.038 1.055-.069 1.844-.118.87 1.173 1.764 2.645 2.659 4.123 8.807 5.268 6.962 17.031 16.745 21.006 1.161 5.441.118 9.497.751 14.969 4.826 4.907 2.602 7.193 2.248 13.652 6.025 10.962-1.658 18.496-6.521 28.614.174 6.422.08 12.87-1.087 19.068 2.149.478 4.987 3.366 11.025 6.658 3.906-.857 8.074-1.733 12.242-2.615 3.54 1.615 3.54 1.615 11.521 2.336 7.435-7.217 19.596.596 24.832-4.025-.087-1.224-.143-2.137-.211-3.05-2.249-2.006-4.497-4.006-6.727-5.708-.472-7.018.957-13.242 1.006-20.291 7.845-5.093 9.696-1.23 17.69-.205 7.446-14.875 20.825-.702 29.725 5.782 17.373 2.883 15.764 10.342 27.397 22.167 10.832 3.914 9.832 8.572 11.994 21 1.702 1.733 1.702 1.733 7.857 2.876 7.745 9.012 15.565-.372 21.9 11.18 1.1 4.528 1.1 4.528.292 8.254-11.627 7.789-12.72 22.875-.87 30.093 14.317.627 28.223 3.117 42.353.993.038.615.081 1.224.118 1.833 4.578 1.242 4.578 1.242 16.441.801 6.484 2.037 12.981 4.385 19.745 6.714 15-.95 29.26-8.907 43.85-11.975 5.559-3.726 9.136-9.465 2.168-14.85-1.957-5.391-3.882-10.485-5.814-15.571 2.416-7.199 2.975-14.597 7.037-20.981 1.05-3.516 3.994-8.336 5.08-12.615 1.814-7.124 2.268-13.484 8.1-15.192 1.224 6.36 3.795 9.26 7.043 14.267.752 3.323 1.522 6.95 2.565 10.564.522-.037 1.05-.067 1.839-.117.124 1.832.273 3.968.677 6.086 5.963 10.044-1.46 13.577-2.72 22.242.043.609.08 1.217.124 1.832-3.013 2.336-5.746 4.963-8.472 7.584.714 2.715.714 2.715 2.677 4.429 3.074-1.423 3.9-4.845 7.521-5.994.386-2.168 1.031-4.354 1.671-6.54.77-.36 1.54-.714 2.571-1.087.119-2.15.497-4.323.901-6.187 17.515-10.614 26.677-4.142 10.186-25.166.572-6.125 6.336-12.584 9.106-18.783 3.925-8.782 5.397-17.273 8.242-25.533 1.316-.081 2.633-.168 4.21-.267 5.255 7.329 5.255 7.329 7.43 12.098.52-.037 1.049-.068 1.838-.117.453 6.714 3.05 9.919 6.055 15.248-.056 3.068-.093 6.44.13 9.8-6.123 3.143-16.638 11.783-18.757 19.578 13.168 3.149 14.826-10.813 25.087-15.447-.068-.92-.106-1.528-.15-2.137 3.075-1.422 17.454-6.596 18.218-10.937.528-.037 1.056-.068 1.844-.118-.596-4.864-3.49-10.161-3.8-14.739-5.485-10.69-.1-15.037 4.477-25.44 6.975-6.268 7.621-18.236 15.944-20.298 1.671 9.093 8.236 16.335 11.224 25.34-8.069 1.74-9.621 6.131-11.634 15.454-3.037 2.03-5.298 3.708-6.913 7.18.59.882 1.435 1.745 2.292 2.615 4.019-3.013 5.56-3.726 6.764-9.323 5.602-3.111 7.062-5.043 10.068-11.36 2.876-.49 8.379-1.149 9.162-5.18 12.403-4.161 16.453-2.882 16.776-17.614-3.044-5.938-3.044-5.938-4.777-11.963-.521.037-1.05.069-1.577.1l-.205-3.05c.528-.031 1.056-.063 1.577-.1.634-10.155 6.74-17.59 7.087-28.036.528-.031 1.05-.062 1.578-.1 1.105-7.117 3.298-13.695 10.559-8.024 8.366 22.154 8.366 22.154 10.763 26.29 9.82.604 14.23-.595 21.95-7.52-.472-7.02-8.826-17.217-13.813-20.577.192-8.907 3.198-15.224 5.838-23.056.578-7.087 1.82-16.056 7.646-19.795 7.559 6.267 12.453 16.068 14.975 26.025 6.906 4.466 21.968-11.205 23.173-16.795-7.521-9.64-13.124-16.64-14.03-30.068 3.434-33.185 6.16-25.546 11.862-17.614 4.479 6.472 18.596 14.105 17.416 18.323-8.118.701-9.043 14.552-7.527 22.434 1.521-1.02 3.298-2.05 5.08-3.081 1.36-6.304 5.814-12.515 5.665-18.701l5.13-8.466c5.571-1.404 5.702-6.479 2.64-16.292-4.15-2.801-8.038-5.62-11.932-8.434-3.397-11.13-3.59-33.49-.932-45 1.032-.372 2.324-.763 3.64-.844 5.211 6.72 10.429 13.44 15.919 20.447.702 10.378-1.46 13.577 3.453 23.689 5-.317 2.777-13.665 2.51-17.634 12.509-14.279 12.509-14.279 13.64-17.105-6.243-6.347-14.97-6.41-20.528-14.335-2.199-9.055-10.18-25.403-5.454-33.676 11.578-.733 16.708 4.764 25.95 12.46 5.1 12.85 16.03-12.976 17.646-16.448-.72-10.683-19.633-12.856-25.876-19.198-3.006-9.316-6.018-18.627-9.024-27.937 7.236-6.28 7.863-4.79 15.888.528 12.155 3.826 17.478 4.41 18.043 20.614 1.627 4.497 1.813 3.975 3.72 8.758-.379 2.167-.497 4.322-.596 6.776.85.87 1.702 1.733 2.571 2.907 1.1.54.255-2.845 1.367-1.994 2.528-1.696 3.875-.826 3.385-4.161-.547-.273-.33-2.709-.857-2.677-1.746-6.323-.54-6.503-.466-13.249-.789.05-1.317.081-1.839.113-.646-9.46.839-9.249 5.28-17.802-1.286-7.28-2.54-6.28-7.845-6.552-.062-.92-.105-1.528-.143-2.137-8.285-5.298-8.285-5.298-22.732-11.739-1.969-5.701-2-10.16-2.677-16.248.528-.031-.08-1.05.714-1.1-.944-6.067-2.323-10.887-2.515-17.62 3.416-.217 4.248.348 7.534 1.975.037.609.08 1.224.143 2.137 9.235 3.708 17.478 4.41 24.893 12.521.317 8.565-1.366 18.789 3.845 25.503 1.292-.385 2.609-.472 4.186-.572.224-.627.708-1.273 1.193-1.913-1.404-16.77-6.074-31.185 6.882-42.738-2.13-4.149-16.925-4.136-22.745-8.055-8.944.564-8.603-2.218-11.373-11.845-.521.031-1.05.062-1.577.1-2.267-6.193-10.484-14.354-10.981-21.683 12.919-4.77 22.533 1.024 32.39 2.242 3.398-4.51 4.485-7.95 6.199-13.882 9.602-6.434-1.186-21.379 14.192-24.502 4.31 12.906 8.64 26.117 12.969 39.334.776 1.025.876 3.429 2.18 3.826 8 2.416 25.155-5.9 32.527-7.69.615 1.193 1.826.932 2.702 2.1-7.801 9.696-12.186 15.18-15.832 27.67-3.826 2.087-7.646 4.168-11.205 6.23-12.832 1.733-21.428 7.49-17.577 25.329-5.503.658-3.54 2.372-3.69 7.894-3.558 6.05-9.316 10.708-4.59 18.068 10.224 2.31 9.615-18.844 14.454-24.515-.037-.609-.08-1.224-.118-1.832 1.006-.677 2.037-1.05 3.335-1.435-.043-.615-.08-1.224-.124-1.833 4.59-2.434 17.937-12.173 22.515-10.931 2.789 9.938-8.814 26-12.056 36.627-9.583 6.738-22.639 9.1-29.08 19.316l2.199 9.056c.528-.038 1.056-.069 1.577-.1.044.609.087 1.218.15 2.137 8.46.074 20.93.82 27.968-4.534 1.577-.1 3.155-.199 4.757.006.119 1.833.51 3.646.895 5.46-2.807 5.385-6.323 8.062-10.85 11.416-8.851 13.738-8.851 13.738-11.094 15.72-13.03 2.664-28.968-2.454-27.67 16.776 2.174 4.764 4.366 9.838 6.56 14.906 7.086-.751 17.974-3.894 25.557-4.993.833 12.21-14.738 24.229-22.484 30.856-21.192 3.18-24.434-1.826-27.154 20.416.87 1.167 1.739 2.341 2.876 3.497 4.434-.895 6.962-2.59 10.745-5.28 6.82-.739 13.64-1.478 20.726-2.236.348 5.193-3.857 9.441-6.826 12.385-4.205 19.888-28.329 22.645-43.384 26.664.043.609.08 1.217.124 1.832-8.093 1.429-8.03 2.348-8.447 11.87-4.72 8.273-24.055 19.304-21.472 30.173 7.895-.497 14.398-9.8 18.112-17.391 9.347-2.429 21.105-4.404 30.366-.391.186 2.745.043 4.596-1.125 6.813-9.366 6.112-17.068 13.341-25.645 19.403-8.944.566-17.888 1.137-26.57 1.684-3.945 4.236-6.088 19.26-4.585 25.912 9.031.652 19.31-3.547 27.515.528.062.913.143 2.137.491 3.342a121.274 121.274 0 00-7.82 9.385c-12.745 6.937-15.59 15.7-31.93 12.44-11.634 3.807-20.429-5.136-28.143 9.758.416 6.105-.205 12.577 3.286 17.26 6.9.485 13.807.963 20.707 1.448.044.608.087 1.217.15 2.136.521-.037 1.049-.069 1.577-.1.062.914.124 1.827.205 3.05-2.832 1.1-5.64 2.503-8.192 3.895-11.1 7.75-23.615 18.043-36.776 18.881-10.49-2.708-21.323-6.615-31.64-2.9-9.744 8.279-16.154 15.124-27.85 18.012-2.465 2.608-4.447 4.571-7.825 5.397.08 1.224.167 2.447.267 3.97 3.36-1.132 5.18-1.554 8.95-.566 13.204-7.888 21.459-10.863 36.024-2.59 3.422-.218 6.82-.74 9.199 3.093-1.025 8.341-32.683 20.77-40.981 23.136-10.919-5.13-18.236-11.72-29.993-9.745-3.783 2.69-7.174 7.198-12.956 11.546-4.15 1.186-15.969 2.236-17.36 9.068-3.112.814-11.367 3.789-8.627 9.13 2.608-.472 5.223-.944 8.117-1.124.398-1.87 2.566-3.845 2.97-5.708 3.372-.826 5.012-1.235 8.676-1.776 10.578-7.72 26.378 3.23 37.658 5.888.043.609.087 1.224.149 2.137 2.646.136 2.646.136 3.28 1.633-7.423 3.534-14.547 7.664-22.702 8.18-13.534 6.988-18.124 9.422-32.304 2.969-13.521-.677-18.304-4.969-22.757 11.248-11.789 5.348-19.254-3.373-30.59 8.683.851.864 1.702 1.733 2.572 2.9 10.26-.645 22.993 3.634 29.173-6.564 3.019 1.645 6.385.944 9.429 2.894 11.57-.733 23.813 8.298 35.396 11.547l.224 3.36c-8.615 1.466-18.329 6.372-25.931 11.149-6.783 1.347-21.49 6.57-24.789 8.614-12.285-1.975-19.409-13.478-30.104-19.236-5.746-10.67-14.044-12.291-23.652-5.856-2.627.167-5.242.64-7.85 1.111-.063-.919-.107-1.528-.144-2.136-7.366 4.447-13.944 4.863-13.279 14.633 8.323 5.907 21.583 18.248 30.695 20.124.037.608.08 1.217.143 2.136 5.26-.335 14.323 8.59 18.764 11.683 10.695 5.758 21.651 11.497 32.614 17.242.037.609.099 1.522.161 2.441-1.832 2.441-4.87 3.64-5.608 3.478-.448-.093 1.198-1.006.882-1.528-.51-.838-.988-1.987-1.851-2.658-1.044-.814-3.317-1.068-3.423-2.646-8.018-1.329-25.602-7.26-31.9 1.106 3.957 7.72 16.292 5.155 23.298 7.167 4.981-.627 10.876-2.683 11.727-1.82-4.36 5.796-24.168 2.851-29.733 2.597-19.732-10.398-31.862-29.552-51.657-40.863-5.211-6.72-13.391-10.497-20.546-14.639-9.571 3.062-19.466 5.217-26.577 13.335-16.404 7.472-33.316 19.273-42.701 36.726-6.51 5.317-55.844 18.254-52.974-1.851 5-.317 9.528-3.658 12.98-7.248 7.752-2.634 13.106-9.423 19.901-14.454-.043-.608-.087-1.217.137-1.844 7.366-.472 12.298-5.69 19.608-7.068 16.018-9.292 16.018-9.292 24.285-15.95 8.826-2.398 8.826-2.398 21.608-8.72-.124-1.833-.248-3.665-.354-5.193-28.278-4.031-28.278-4.031-31.297-5.677-8.074 1.74-25.037 4.957-32.509-.087-8.683.553-7.36 8.44-3.726 15.26 4.379 2.175 8.77 4.653 13.428 7.112.888 13.124-7.037 13.627-15.726 10.192-1.652-8.782-4.205-19.651-8.665-27.03-1.844.118-3.683.23-5.267.33-3.323 9.409 1.503 18.297-4.31 26.023-13.18.528-13.18.528-14.82-.285-3.664-15.1 12.975-15.23 12.062-28.658-10.521.665-16.465 6.56-23.844 14.69-13.41 4.832-27.298 6.633-41.608 6.012-8.466-4.062-13.273-8.665-22.745-8.062-5.087-4.889-6.59-7.553-13.055-13.274-8.385-2.838-11.665-4.471-15.18-13.44-4.478-3.702-12.112-7.205-13.863-13.528 3.757-6.981-2.752-13.31-.093-20.838 1.273-.69 2.832-1.1 4.39-1.503.044.609.082 1.224.15 2.137 5.217-.945 11.795-1.36 15.192-5.87-1.913-4.782-1.373-8.496-3.26-12.969-3.603-2.533-3.603-2.533-17.764-8.683-10.217-10.39-17.05-5.968-25.695 6.839 2.068 18.87 4.037 20.583-13.416 20.465-4.696-14.72 6.944-14.54 8.205-27.185 2.906-3.864 6.906-7.18 8.062-9.708-.914-1.783-1.566-3.578-2.193-5.069-3.161.2-6.317.398-9.211.585-2.739-5.342-14.919 2.167-18.453 4.54-5.043-.293-9.801-.299-14.559-.305-3.776-8.956-8.59-5.888-16.198-5.1-.044-.614-.087-1.223-.124-1.831-8.304-1.621-13.553-8.95-22.205-11.777-.627-1.49-1.26-2.98-1.602-4.186-4.578-1.242-16.093-15.223-18.813-20.26.534-7.702 1.838-15.751.776-23.652 7.323-1.08 19.807-8 26.23-2.888.794 3.932 1.85 7.85 2.912 11.77zm599.192-60.868l2.05-.54 1.993 3.72-1.596 2.118-2.77.18.323-5.478zm-362.16 275.41c-2.267-2.31-4.372-2.174-7.31-2.603.18-1.235.36-2.472.565-3.403 5.944-1.913 23.552-7.323 29.08-3.683-.199.931.67 3.503.472 4.434-2.633.162-3.397.36-4.31 2.566-6.249 1.316-12.528 1.086-18.497 2.689zm-12.832-45.16c-2.012-2.33-2.012-2.33-2.416-4.447 3.025-6.013 4.59-2.436 4.92 2.446-1.013.677-1.758 1.342-2.504 2zm-35.21-20.453c-11.67-4.473-22.944-3.144-33.416-9.528-1.242-6.665-1.242-6.665-.838-8.528 4.528.634 4.615 1.85 7.776 5.64 8.727.056 16.323 2.95 24.782 3.025 6.727 1.72 12.807-2.038 18.54.664.087 1.217.168 2.441.516 3.646-5.298 3.702-11.068 4.379-17.36 5.08zm-47.31-15.696c-4.702-3.074-5.838-4.23-8.093-10.217 1.758-5.323 7.814-1.72 10.85.236.169 2.44.355 5.186.541 7.932-1.28.695-2.285 1.372-3.298 2.05zm105.545-14.05c-2.982-5.018-4.323-9.222-2.92-15.75 2.062-.746 3.056-1.727 5.261-.336.354 5.193.565 12.224-2.341 16.087zm-118.358.454c-5.571-4.242-16.497-13.353-10.192-21.726 1.316-.08 2.633-.168 4.23.038 1 2.999.353 5.186.82 8.223 4.061 5.26 6.247 6.347 8.092 10.217-.987.981-1.981 1.963-2.95 3.248zm-65.322-28.036c-.832-.566-1.658-1.125-2.205-1.398-.167-2.441-.167-2.441.982-4.962 1.056-.069 2.105-.137 3.161-.2.342 1.2.708 2.709 1.075 4.224-1.013.67-2.019 1.354-3.013 2.336zm140.674-22.1c-4.826-4.906-13.888-2.186-20.105-4.242-2.82-2.583-2.82-2.583-7.46-4.738-.08-1.224-.142-2.137-.204-3.056 4.31-2.72 29.9.559 29.552 11-.77.36-1.28.695-1.783 1.037zm-70.663 2.33c-1.074-.236-1.882-.491-2.695-.746-.342-1.204-.671-2.105-.733-3.018a288.76 288.76 0 017.248-2.298c1.702 1.733 1.702 1.733 1.801 3.255-1.714 1.95-1.714 1.95-5.62 2.807zm34.074-11.97c-1.422-1.44-1.764-2.645-1.404-5.117 2.87-.49 4.832-2.757 7.609-.789-.69 1.578-1.087 3.441-1.49 5.304-1.578.1-3.156.2-4.715.603zm-126.19-9.775c-2.528-2.292-4.8-4.596-7.05-6.602-.061-.914.162-1.54.38-2.168 5.142-2.161 12.49 1.05 18.123 2.223.081 1.218.162 2.442.267 3.97-3.906.856-7.813 1.72-11.72 2.577zm20.907-3.472c-1.069-.236-2.143-.472-3.218-.715-.08-1.217-.167-2.44-.223-3.354 1.292-.39 2.87-.49 4.447-.59.08 1.224.167 2.441.273 3.97-.528.03-1.037.372-1.28.689zm532.671-47.869c2.51-1.993 2.51-1.993 5.118-2.466.106 1.522.472 3.031.839 4.541-.77.354-1.54.714-2.044 1.05-.422 1.559-.565 3.41-.702 5.254-1.03.373-2.043 1.05-3.055 1.727-4.33 2.422-5.826 3.739-10.826 4.062-3.454 3.583-3.454 3.583-5.516 4.329-1.118-.845-2.23-1.696-3.323-2.236-.111-5.516 15.267-12.614 19.51-16.26zm-32.9 9.752c-.366-1.51-.447-2.733-.534-3.95.789-.05 1.845-.118 2.895-.187.062.92.149 2.137.23 3.36-1.056.062-1.82.422-2.59.777zm-542.081 33.75c1.33-3.757 1.33-3.757 1.727-9.608 1.03-.372 2.329-.758 3.64-.844 2.515 1.987 2.515 1.987 3.813 5.583-1.851 3.795-5.54 4.031-9.18 4.87zm64.682-8.695c-.106-1.528-.205-3.05-.025-4.292l2.304-1.062c.466-.95.926-1.9 1.416-2.546a27.34 27.34 0 002.69.751c-.15 5.528-1.764 9-5.286 11.677l-1.1-4.528zm480.586-32.614c-3.615-10.497 1.142-10.497 3.72-19.242l4.733-.298c.192 6.733-3.907 12.509-5.863 18.763-1.05.063-1.82.423-2.59.777zm-473.829 15.329c-.472-3.037-.938-6.075-1.39-8.802-1.398-1.136-2.796-2.272-3.914-3.123-.1-1.529-.205-3.05-.286-4.273 4.472-.287 9.373 1.856 11.323 7.254l-2.907 3.857c.305.596.628 1.497.957 2.39 1.621 4.498 1.08 8.212-3.211 7.255-.367-1.509-.472-3.03-.572-4.558zm536.169-50.85c-1.485-2.36-1.485-2.36-1.124-4.832 6.13-3.15 7.82-13.373 16.403-11.466.41.982 2.224 1.907 1.789 2.776-1.547 3.106-9.162 5.845-9.85 10.92-2.59.776-4.914 1.534-7.218 2.602zM797.32 892.764c-.044-.609-.087-1.217.161-1.54l2.366-.15c2.025-1.353 2.243-1.98 5.18-1.558 1.36 4.515 1.36 4.515 1.081 8.21-2.285 1.367-5.515 4.336-8.21 3.585-.063-.914-.125-1.833-.169-2.442-1.614-.509-3.235-1.018-4.857-1.528-1.931-5.092-1.931-5.092-2.242-9.67 2.23 1.702 4.46 3.398 6.69 5.093zm530.522-32.713l-1.1-4.528c1.032-.373 2.33-.758 3.647-.845.08 1.223.186 2.745.285 4.273-1.03.373-2.062.746-2.832 1.1zm-552.398 10.192c2.23 1.701 7.292 2.298 12.236 5.05.106 1.527.49 3.341.876 5.155-1.845.118-3.665.54-5.485.963-.323-.901-.627-1.497-.931-2.088-2.13-.174-4.23-.037-6.075.075-.67-2.1-1.341-4.205-2.012-6.304.466-.95.925-1.901 1.391-2.851zm-105.128 8.503c-.789-3.932-.789-3.932.093-6.44 1.317-.082 2.634-.169 3.95-.25.1 1.528.205 3.05.311 4.578-1.54.714-3.074 1.423-4.354 2.112zm103.252-16.658c-6.291.708-7.018 1.67-10.664 2.515-3.317-2.242-6.62-4.18-9.925-6.111.161-1.547.341-2.783.783-4.038 6.055-.385 13.285 1 18.75 3.715.348 1.205.69 2.41 1.056 3.919zm-96.674-30.652c-3.69-3.752-8.081-2.242-12.193-4.435 1.944-14.223 22.51.715 12.193 4.435zm-21.528-5.683c-8.385-2.844-13.167-7.136-20.906-12.161.136-1.851.136-1.851 2.341-4.44 4.534.632 4.839 1.223 8.249 4.688 5.142 1.82 10.304 3.944 15.471 6.069-.18 1.235-.36 2.471-.26 4-1.82.422-3.355 1.13-4.895 1.844zm38.807-12.273c-1.702-1.726-2.72-5.037-.74-7l2.43.764c.086 1.224.167 2.441.515 3.646-.752.659-1.479 1.627-2.205 2.59zm715.394-49.949c-.105-1.528.056-3.068.236-4.304.789-.056 1.578-.106 2.367-.15 1.484 2.355 5.217 4.92 4.9 8.007-.77.36-3.267.465-3.776.807-2.261 1.677-3.938 4.236-6.304 4.385.217-4.608.149-5.528 2.577-8.745zm-782.573 41.334c-1.658-1.117-3.056-2.254-4.453-3.39-.336-4.883.975-8.951 1.981-13.615 1.012-.677 2.043-1.044 3.342-1.436.037.61.08 1.218.142 2.137.528-.037 1.056-.068 1.845-.118.553 4.255 1.367 8.497 2.205 13.037-1.963 2.274-1.963 2.274-5.062 3.385zm-22.422.504c-.087-1.218.093-2.454.298-3.386 1.56-.41 3.112-.813 4.696-.912.08 1.217.161 2.44.267 3.968-1.845.118-3.683.23-5.26.33zm101.439-23.9c-2.31-2.92-1.466-6.038-.621-9.155.528-.032 1.056-.069 1.845-.119.037.615.08 1.224.142 2.137.528-.031 1.075.242 1.882.497-.155 1.54-.056 3.068.069 4.9-1.298.385-2.305 1.062-3.317 1.74zm-88.346-5.125c-1.621-.51-2.975-1.037-4.335-1.565-.435-6.41 4.627-5.813 9.167-5.18.1 1.528.205 3.05.31 4.578-1.8.726-3.602 1.453-5.142 2.167zm790.97-57.812c-4.378-2.174-2.944-11.161-2.993-15.758 1.82-.422 3.77-1.198 5.875-1.335-.192 4.913 1.05 8.64.87 13.857-.789.056-3.23 3.205-3.752 3.236zm22.36-1.416c-.49-7.33 2.665-17.18 9.118-19.428.273 1.055 2.522 5.962 2.603 6.912.242 2.839-4.1 5.063-4.882 8.094-.77.36-1.274.695-1.783 1.037.044.609.087 1.217.15 2.137-1.82.422-3.647.844-5.206 1.248zm-738.282 35.77c-.366-1.51-.472-3.032-.577-4.56.794-.05 1.844-.118 2.894-.18.087 1.217.168 2.44.248 3.658-1.03.373-1.795.727-2.565 1.081zm752.816-94.315c-.373-5.491-2.46-9.037 3.143-12.156 4.472-.279 5.143 3.404 5.919 7.037-2.422 3.218-5.44 3.97-9.062 5.119zm-789.33 11.726c-.808-.255-1.355-.522-1.901-.795.155-1.547.317-3.087.478-4.627l5.522-.354c-.156 1.546-.317 3.087-.212 4.614-1.298.385-2.59.777-3.888 1.162zm-56.602-16.329c-.161-2.441-.329-4.888-.49-7.329 1.068.242 2.142.478 3.478.702.391 1.813 1.037 3.608 1.708 5.714-1.578.1-3.137.503-4.696.913zm23.335-18.341c-.366-1.51-.466-3.038-.553-4.255 1.056-.068 2.106-.137 3.162-.198.062.912.143 2.136.223 3.354-1.03.372-2.062.745-2.832 1.099zm28.378-18.043c-3.174-7.77-1.149-9.124-.552-15.9-1.659-1.125-3.323-2.243-4.696-3.075-.366-1.51-.453-2.733-.534-3.95 1.801-.727 3.62-1.15 5.44-1.572 8.858 5.876 4.237 15.67 2.144 23.77-.79.05-1.299.391-1.802.727zm806.976-55.452c-.825-.56-1.397-1.137-1.944-1.41-.534-7.932 4.547-11.59 6.18-18.745 1.007-.677 2.038-1.05 3.336-1.435 3.975 4.037-2.938 15.776-4.186 20.764-.79.05-2.615.471-3.386.826zm-15.322.05c-5.18-2.43-7.714-10.864-7.646-17.61 6.913-7.185 11.335.653 11.186 10.162-.136 1.845-.609 3.895-.466 6.031-1.03.367-2.062.74-3.074 1.416zm-870.36 52.116c-5.478-6.701-12.888-22.478.267-23.31 1.553 7.255-1.292 16.018 1.571 23.192-.788.05-1.316.087-1.838.118zm-.64-36.738c-3.832-1.907-2.26-9.975 2.764-6-.161 1.54-.056 3.068.044 4.596-1.031.373-2.062.745-2.808 1.404zm85.452-6.342c-.367-1.51-.472-3.03-.572-4.558.79-.05 1.839-.119 2.895-.181.08 1.218.161 2.441.248 3.659-1.03.372-1.801.726-2.571 1.08z" fill="#008d43"/><path d="M1037.5 331.155c166.003 0 301.864 133.302 306.013 298.329-71.47-37.297-164.537-70.321-267.647-91.663-117.463-24.316-230.597-30.198-320.03-20.254 46.75-109.407 155.5-186.412 281.665-186.412zm4.007 39.93l11.664 35.889 37.658-.057-30.546 21.938 11.708 36.043-30.435-22.118-.055.031-.038-.025-30.434 22.112 11.876-35.664-30.714-22.317 37.658.057 11.658-35.888zm7.85 297.97l6.36 26.483 27.1 2.094-23.23 14.056 6.391 26.601-20.651-17.64-.038.02-.03-.02-23.155 14.18 10.57-24.986-20.831-17.802 27.092 2.174 10.423-25.16zm142.768 10.111l9.782 28.235 29.825-.614-23.856 17.838 9.832 28.366-24.447-17.043-.043.024-.031-.024-23.757 17.98 8.85-28.427-24.664-17.199 29.826-.534 8.683-28.602zm-157.537 146.445l7.403 27.036 27.95 1.28-23.434 15.21 7.434 27.161-21.82-17.478-.043.019-.024-.019-23.36 15.348 10.056-26.056-22.012-17.626 27.943 1.354 9.907-26.23zM840.56 632.962l8.372 28.907 30.025.919-24.913 16.707 8.416 29.03-23.701-18.408-.044.024-.03-.018-24.82 16.844 10.372-28.13-23.912-18.57 30.018 1.005 10.217-28.31zm494.94 74.297c-31.801 135.059-153.47 236.119-298 236.119-168.6 0-306.112-137.513-306.112-306.112 0-16.316 1.31-32.34 3.79-47.98 89.606-10.111 203.2-4.267 321.154 20.149 108.743 22.515 206.194 57.937 279.167 97.824z" fill="#2549a5"/></g><path d="M700.33 0H2000v713.55L700.33 0zm638.214 1400H0V665.099L1338.544 1400z" fill="#008d43" fill-rule="evenodd"/></svg>