<svg xmlns="http://www.w3.org/2000/svg" version="1.0" width="900" height="600"><path fill="#009b3a" d="M0 0h899.997v300H0V0z"/><path fill="#fff" d="M0 300h899.997v300.003H0V300z"/><path d="M619.99 125.672v258.456c0 38.364-35.553 69.755-79.006 69.755h-71.071c-10.75 3.976-17.85 12.494-19.472 20.445-.812-9.086-7.1-15.902-18.863-20.445h-72.435c-43.454 0-79.007-31.39-79.007-69.755V125.672H619.99z" fill="#fedf00"/><g><path d="M356.62 221.628c3.235 0 5.859 3.535 5.859 7.892 0 4.36-2.624 7.892-5.86 7.892-3.235 0-5.858-3.533-5.858-7.892 0-4.357 2.623-7.892 5.859-7.892" fill="#231f20" fill-rule="evenodd"/><path d="M710.984 1810.59c20.594 0 37.289-22.73 37.289-50.75 0-28.03-16.695-50.75-37.29-50.75-20.59 0-37.284 22.72-37.284 50.75 0 28.02 16.695 50.75 37.285 50.75z" fill="none" stroke="#231f20" stroke-width="8.334" stroke-miterlimit="22.926" transform="matrix(.15713 0 0 -.1555 244.903 503.189)"/><path d="M349.645 238.736c3.236 0 5.86 3.534 5.86 7.892 0 4.359-2.624 7.892-5.86 7.892-3.235 0-5.859-3.533-5.859-7.892 0-4.358 2.624-7.892 5.859-7.892" fill="#d2cb54" fill-rule="evenodd"/><path d="M666.597 1700.58c20.594 0 37.293-22.73 37.293-50.75 0-28.03-16.7-50.75-37.293-50.75-20.586 0-37.285 22.72-37.285 50.75 0 28.02 16.699 50.75 37.285 50.75z" fill="none" stroke="#231f20" stroke-width="8.334" stroke-miterlimit="22.926" transform="matrix(.15713 0 0 -.1555 244.903 503.189)"/><path d="M486.185 389.917c7.095.549 11.622-1.067 18.845-10.275 5.883-7.5 7.592-15.343 16.448-20.323 9.136-5.138 20.334-5.603 29.079-3.952 12.94 2.443 23.32 13.15 22.417 26.695-1.04 15.634-20.203 25.184-38.023 17.25 4.354-.447 9.748-5.55 15.23-11.02 11.747 2.209 23.323-17.766 7.879-27.132-9.273-4.122-17.654-5.016-24.634-.618-4.538 2.859-5.45 6.04-7.976 10.425-7.59 13.182-15.997 23.776-34.431 23.95 1.505-2.496.165-4.073-2.811-4.626-1.542-.105-.483-.27-2.023-.374" fill="#fff200" fill-rule="evenodd"/><path d="M1535.563 728.398c45.15-3.527 73.96 6.864 119.93 66.079 37.44 48.226 48.32 98.664 104.68 130.687 58.14 33.039 129.41 36.027 185.06 25.41 82.35-15.711 148.42-84.558 142.67-171.66-6.62-100.539-128.58-161.949-241.99-110.93 27.71 2.875 62.04 35.692 96.93 70.86 74.76-14.199 148.43 114.254 50.14 174.48-59.01 26.504-112.35 32.254-156.77 3.973-28.88-18.383-34.69-38.836-50.76-67.039-48.31-84.766-101.81-152.891-219.13-154.008 9.58 16.047 1.05 26.188-17.89 29.746-9.81.672-3.07 1.734-12.87 2.402z" fill="none" stroke="#231f20" stroke-width="8.334" stroke-linecap="round" stroke-linejoin="round" stroke-miterlimit="22.926" transform="matrix(.15713 0 0 -.1555 244.903 503.189)"/><path d="M540.962 396.568c7.792 1.17 15.157 1.105 20.89-3.916 10.492-9.194 10.57-24.775-1.938-32.402-5.083-3.1-11.914-4.474-20.179-4.428-2.534.071-4.959.3-7.346.684a55.764 55.764 0 00-5.425 1.157c-5.582 1.477-9.573 4.426-12.87 9.23-2.865 4.175-4.858 8.87-8.707 13.073-8.108 8.849-11.083 10.35-17.128 10.085 1.54.104-.517-.012 1.023.092 1.83.708 2.621 2.069 2.321 3.76 23.282-.525 24.159-32.935 46.067-35.345 6.042-1.94 12.926-.715 20.39 2.602 15.444 9.366 3.868 29.341-7.879 27.133-3.163 3.155-6.298 6.187-9.219 8.275" fill="#00a650" fill-rule="evenodd"/><path d="M536.545 263.157c.238.095.476.19.714.283-.476 35.874-.095 73.023-.572 108.898.166-4.622 19.363-20.65 19.435-15.416 1.626-.708-3.77-94.048-4.715-94.048-4.955.095-9.909.19-14.862.283" fill="#e39125" fill-rule="evenodd"/><path d="M1856.063 1543.54c1.51-.61 3.03-1.22 4.54-1.82-3.03-230.69-.6-469.58-3.64-700.275 1.06 29.719 123.23 132.793 123.69 99.129 10.35 4.555-23.99 604.786-30.01 604.786-31.53-.61-63.06-1.22-94.58-1.82z" fill="none" stroke="#231f20" stroke-width="16.668" stroke-miterlimit="22.926" transform="matrix(.15713 0 0 -.1555 244.903 503.189)"/><path d="M536.18 362.814c1.195-8.827 2.714-8.048 4.562-1.197-.39-2.888-.95-5.09-1.676-6.766-1.149-2.645-1.312-1.225-2.04 1.421-.778 2.826-1.585 6.456-.847 6.542M543.98 357.905c1.693-8.828 3.85-8.049 6.47-1.198-.555-2.888-1.347-5.09-2.38-6.765-1.625-2.646-1.858-1.226-2.89 1.42-1.103 2.826-2.25 6.456-1.2 6.543" fill="#231f20" fill-rule="evenodd"/><path d="M539.124 353.953c1.694-8.828 3.851-8.05 6.472-1.198-.553-2.888-1.348-5.09-2.379-6.766-1.626-2.645-1.86-1.225-2.893 1.422-1.101 2.825-2.248 6.455-1.2 6.542M548.487 352.515c1.693-8.827 3.85-8.048 6.47-1.197-.554-2.888-1.347-5.09-2.377-6.766-1.627-2.645-1.86-1.225-2.892 1.422-1.103 2.825-2.25 6.455-1.2 6.541" fill="#231f20" fill-rule="evenodd"/><path d="M543.98 345.09c1.693-8.826 3.85-8.047 6.47-1.197-.555-2.888-1.347-5.09-2.38-6.765-1.625-2.646-1.858-1.226-2.89 1.42-1.103 2.826-2.25 6.457-1.2 6.542" fill="#231f20" fill-rule="evenodd"/><path d="M539.124 341.139c1.694-8.828 3.851-8.048 6.472-1.197-.553-2.888-1.348-5.09-2.379-6.767-1.626-2.645-1.86-1.225-2.893 1.422-1.101 2.825-2.248 6.455-1.2 6.542M548.487 339.702c1.693-8.828 3.85-8.049 6.47-1.197-.554-2.888-1.347-5.09-2.377-6.766-1.627-2.646-1.86-1.226-2.892 1.42-1.103 2.826-2.25 6.456-1.2 6.543" fill="#231f20" fill-rule="evenodd"/><path d="M543.98 332.278c1.693-8.828 3.85-8.049 6.47-1.199-.555-2.888-1.347-5.088-2.38-6.764-1.625-2.647-1.858-1.226-2.89 1.42-1.103 2.825-2.25 6.456-1.2 6.543" fill="#231f20" fill-rule="evenodd"/><path d="M539.124 328.325c1.694-8.826 3.851-8.047 6.472-1.197-.553-2.888-1.348-5.088-2.379-6.766-1.626-2.646-1.86-1.224-2.893 1.421-1.101 2.826-2.248 6.455-1.2 6.542M548.487 326.888c1.693-8.828 3.85-8.047 6.47-1.197-.554-2.888-1.347-5.09-2.377-6.765-1.627-2.646-1.86-1.227-2.892 1.42-1.103 2.826-2.25 6.455-1.2 6.542" fill="#231f20" fill-rule="evenodd"/><path d="M543.492 320.66c1.537-8.09 3.495-7.375 5.874-1.098-.503-2.646-1.224-4.663-2.16-6.2-1.476-2.426-1.689-1.124-2.625 1.303-1 2.59-2.041 5.916-1.089 5.995" fill="#231f20" fill-rule="evenodd"/><path d="M539.086 317.038c1.537-8.09 3.496-7.377 5.874-1.097-.503-2.647-1.224-4.666-2.16-6.2-1.475-2.426-1.687-1.125-2.625 1.301-1 2.59-2.04 5.917-1.089 5.996M547.582 315.721c1.538-8.09 3.495-7.377 5.874-1.098-.502-2.646-1.224-4.665-2.16-6.2-1.476-2.426-1.687-1.124-2.625 1.302-.998 2.59-2.041 5.917-1.089 5.996" fill="#231f20" fill-rule="evenodd"/><path d="M543.341 311.32c1.49-8.378 3.386-7.638 5.69-1.136-.487-2.74-1.185-4.83-2.091-6.421-1.43-2.512-1.635-1.163-2.543 1.348-.97 2.681-1.977 6.127-1.056 6.21" fill="#231f20" fill-rule="evenodd"/><path d="M539.074 307.57c1.492-8.38 3.386-7.639 5.69-1.137-.488-2.742-1.185-4.83-2.09-6.421-1.432-2.511-1.638-1.163-2.544 1.348-.97 2.681-1.977 6.127-1.056 6.21M547.306 306.206c1.488-8.379 3.383-7.639 5.688-1.137-.487-2.74-1.185-4.83-2.092-6.42-1.431-2.512-1.635-1.164-2.544 1.347-.968 2.683-1.976 6.127-1.052 6.21" fill="#231f20" fill-rule="evenodd"/><path d="M543.043 302.099c1.392-8.163 3.166-7.443 5.32-1.106-.456-2.671-1.108-4.707-1.956-6.257-1.337-2.447-1.529-1.134-2.378 1.314-.906 2.612-1.85 5.97-.986 6.049" fill="#231f20" fill-rule="evenodd"/><path d="M539.052 298.444c1.392-8.162 3.164-7.442 5.32-1.105-.456-2.672-1.108-4.707-1.956-6.258-1.337-2.446-1.53-1.133-2.378 1.314-.906 2.613-1.849 5.97-.986 6.05M546.746 297.116c1.394-8.164 3.168-7.442 5.322-1.107-.454-2.671-1.11-4.705-1.954-6.256-1.34-2.448-1.53-1.134-2.38 1.314-.904 2.611-1.849 5.97-.988 6.05" fill="#231f20" fill-rule="evenodd"/><path d="M544.246 290.243c1.262-6.73 2.866-6.136 4.816-.913-.411-2.202-1.004-3.88-1.769-5.16-1.211-2.017-1.384-.933-2.154 1.086-.819 2.154-1.672 4.923-.893 4.987" fill="#231f20" fill-rule="evenodd"/><path d="M540.637 287.23c1.26-6.731 2.863-6.137 4.816-.912-.415-2.202-1.004-3.88-1.772-5.16-1.21-2.017-1.383-.934-2.153 1.084-.819 2.154-1.67 4.922-.89 4.987M547.6 286.134c1.261-6.73 2.866-6.136 4.815-.912-.413-2.202-1.002-3.882-1.769-5.159-1.21-2.018-1.384-.934-2.15 1.083-.821 2.155-1.674 4.923-.897 4.988M536.085 347.965c1.279-7.223 2.908-6.585 4.888-.98-.42-2.363-1.016-4.165-1.796-5.535-1.23-2.166-1.406-1.003-2.185 1.163-.833 2.311-1.699 5.28-.907 5.352M536.085 335.152c1.279-7.223 2.908-6.586 4.888-.981-.42-2.362-1.016-4.165-1.796-5.535-1.23-2.164-1.406-1.003-2.185 1.163-.833 2.311-1.699 5.28-.907 5.353M536.085 323.655c1.279-7.223 2.908-6.585 4.888-.98-.42-2.363-1.016-4.164-1.796-5.534-1.23-2.166-1.406-1.004-2.185 1.162-.833 2.312-1.699 5.28-.907 5.352M536.737 312.877c1.11-7.222 2.52-6.584 4.236-.98-.364-2.362-.881-4.164-1.557-5.534-1.065-2.166-1.218-1.003-1.893 1.162-.723 2.312-1.473 5.28-.786 5.352M537.062 303.418c1.025-7.224 2.327-6.586 3.911-.982-.336-2.362-.814-4.164-1.437-5.534-.984-2.165-1.125-1.003-1.748 1.161-.666 2.313-1.359 5.281-.726 5.355M537.606 293.717c.882-7.223 2.003-6.586 3.367-.98-.289-2.363-.7-4.164-1.238-5.534-.847-2.166-.968-1.005-1.504 1.161-.575 2.313-1.172 5.281-.625 5.353M552.822 348.324c1.195-8.827 2.716-8.048 4.564-1.198-.392-2.888-.951-5.088-1.677-6.765-1.147-2.646-1.312-1.225-2.04 1.422-.777 2.824-1.585 6.455-.847 6.54M552.13 335.63c1.194-8.827 2.715-8.048 4.563-1.198-.393-2.888-.953-5.088-1.679-6.765-1.147-2.645-1.312-1.225-2.038 1.422-.777 2.825-1.587 6.455-.846 6.542M552.807 321.26c.653-8.828 1.486-8.049 2.498-1.198-.214-2.888-.52-5.089-.92-6.765-.626-2.647-.716-1.225-1.116 1.421-.425 2.826-.868 6.455-.462 6.542M552.112 311.8c.654-8.827 1.488-8.048 2.5-1.198-.215-2.888-.522-5.088-.92-6.765-.628-2.646-.717-1.225-1.116 1.422-.426 2.824-.868 6.455-.464 6.54M552.112 301.741c.654-8.828 1.488-8.049 2.5-1.197-.215-2.89-.522-5.09-.92-6.766-.628-2.646-.717-1.226-1.116 1.421-.426 2.826-.868 6.455-.464 6.542" fill="#231f20" fill-rule="evenodd"/><path d="M551.42 293.478c.653-8.827 1.486-8.048 2.5-1.198-.218-2.888-.522-5.088-.922-6.764-.627-2.647-.716-1.226-1.115 1.42-.426 2.825-.868 6.456-.464 6.542M543.855 283.059c1.182-6.91 2.687-6.3 4.516-.938-.387-2.261-.941-3.983-1.66-5.295-1.137-2.072-1.299-.961-2.02 1.112-.768 2.211-1.57 5.052-.836 5.12M543.855 274.916c1.182-6.91 2.687-6.3 4.516-.938-.387-2.26-.941-3.984-1.66-5.296-1.137-2.07-1.299-.96-2.02 1.112-.768 2.211-1.57 5.054-.836 5.122M539.232 280.185c1.182-6.911 2.686-6.3 4.516-.938-.388-2.261-.941-3.982-1.66-5.297-1.137-2.07-1.299-.959-2.02 1.114-.77 2.211-1.57 5.052-.836 5.12" fill="#231f20" fill-rule="evenodd"/><path d="M547.438 280.185c1.181-6.911 2.685-6.3 4.516-.938-.387-2.261-.942-3.982-1.661-5.297-1.136-2.07-1.297-.959-2.02 1.114-.768 2.211-1.57 5.052-.835 5.12" fill="#231f20" fill-rule="evenodd"/><path d="M364.967 239.97c3.236 0 5.86 3.535 5.86 7.893 0 4.357-2.624 7.892-5.86 7.892-3.235 0-5.859-3.535-5.859-7.892 0-4.358 2.624-7.892 5.859-7.892" fill="#d2cb54" fill-rule="evenodd"/><path d="M764.109 1692.64c20.594 0 37.293-22.73 37.293-50.75s-16.7-50.75-37.293-50.75c-20.586 0-37.285 22.73-37.285 50.75s16.699 50.75 37.285 50.75z" fill="none" stroke="#231f20" stroke-width="8.334" stroke-miterlimit="22.926" transform="matrix(.15713 0 0 -.1555 244.903 503.189)"/><path d="M355.25 244.458c3.235 0 5.859 3.535 5.859 7.892 0 4.36-2.624 7.892-5.86 7.892-3.235 0-5.858-3.533-5.858-7.892 0-4.357 2.623-7.892 5.859-7.892" fill="#d2cb54" fill-rule="evenodd"/><path d="M702.265 1663.78c20.594 0 37.289-22.73 37.289-50.75 0-28.03-16.695-50.75-37.29-50.75-20.59 0-37.284 22.72-37.284 50.75 0 28.02 16.695 50.75 37.285 50.75z" fill="none" stroke="#231f20" stroke-width="8.334" stroke-miterlimit="22.926" transform="matrix(.15713 0 0 -.1555 244.903 503.189)"/><path d="M357.217 231.684c3.236 0 5.86 3.534 5.86 7.892 0 4.357-2.624 7.892-5.86 7.892-3.235 0-5.859-3.535-5.859-7.892 0-4.358 2.624-7.892 5.86-7.892" fill="#231f20" fill-rule="evenodd"/><path d="M714.789 1745.93c20.589 0 37.289-22.73 37.289-50.75s-16.7-50.75-37.29-50.75-37.288 22.73-37.288 50.75 16.699 50.75 37.289 50.75z" fill="none" stroke="#231f20" stroke-width="8.334" stroke-miterlimit="22.926" transform="matrix(.15713 0 0 -.1555 244.903 503.189)"/><path d="M350.815 261.396c-.017.556 5.849 1.717 6.122 1.313-2.092.5-4.184.728-6.275.555l.153-1.868" fill="#231f20" fill-rule="evenodd"/><path d="M1995.913 1806.92l121.43 131.24-16.07-54.45 61.6 49.99-41.06-53.57 69.64 39.29-51.8-50.89 85.71 41.96-68.74-56.25 82.16 30.36-73.22-48.23 98.22 25.92-90.21-41.09 114.31 20.52-100-41.05 92.85 8.03-92.85-24.11 91.97-3.57-93.77-18.75 75.9-11.62-75-8.93 70.55-17.84-83.96-2.67 58.05-25.91-65.17 4.47 49.11-39.3-219.65 46.43v100.02z" fill="none" stroke="#231f20" stroke-width="16.668" stroke-miterlimit="22.926" transform="matrix(.15713 0 0 -.1555 244.903 503.189)"/><path d="M558.52 222.2l19.08-20.41-2.525 8.468 9.68-7.774-6.452 8.33 10.942-6.11-8.14 7.914 13.468-6.525-10.8 8.748 12.91-4.722-11.506 7.5 15.433-4.03-14.174 6.39 17.961-3.192-15.713 6.384 14.59-1.249-14.59 3.75 14.451.555-14.734 2.916 11.926 1.807-11.784 1.388 11.085 2.774-13.192.416 9.121 4.029-10.24-.695 7.717 6.111-34.514-7.22v-15.554" fill="#229845" fill-rule="evenodd"/><path d="M1982.383 1824.2l81.34 159.25-45.59-33.87 25.69 75.08-36.12-57.03 12.86 78.92-29.92-66.16 9.84 94.93-29.1-83.93.17 87.57-20.01-85.35-9.56 101.12-7.46-98.81-20.14 114.36-4.06-108.03-24.48 89.93 9.39-95.48-35.07 85.1 14.73-94.47-37.07 67.24 17.49-73.48-41.09 60.05 26.43-79.71-44.32 45.55 26.67-59.64-53.82 32.55 119.33-190.18 34.46-21.35 59.41 55.84z" fill="none" stroke="#231f20" stroke-width="16.668" stroke-miterlimit="22.926" transform="matrix(.15713 0 0 -.1555 244.903 503.189)"/><path d="M556.394 219.512l12.78-24.765-7.163 5.267 4.037-11.675-5.675 8.869 2.02-12.273-4.701 10.288 1.546-14.762-4.572 13.052.026-13.618-3.144 13.272-1.502-15.724-1.172 15.365-3.165-17.784-.638 16.8-3.846-13.985 1.475 14.848-5.51-13.234 2.314 14.691-5.825-10.456 2.749 11.426-6.457-9.338 4.153 12.396-6.964-7.084 4.19 9.275-8.456-5.062 18.75 29.574 5.415 3.32 9.335-8.683" fill="#229845" fill-rule="evenodd"/><path d="M2045.293 1669.35l165.45-67.83-56.65-4 68.41-40.22-64.57 19.73 61.18-51.5-65.8 30.71 69.31-65.61-76.76 44.72 57.19-66.33-70.79 51.71 58.62-82.94-70.03 70.1 59.23-99.88-73.47 79.31 40.02-84.18-55.07 78.56 28.83-87.41-50.37 81.27 15.68-75.16-34.61 67.14 7.95-72.33-31.88 77.69-3.94-63.43-18.63 62.62-19.62-59.75-33.36 222.02 3.23 74.81 90.45-39.82z" fill="none" stroke="#231f20" stroke-width="16.668" stroke-miterlimit="22.926" transform="matrix(.15713 0 0 -.1555 244.903 503.189)"/><path d="M566.279 243.592l25.997 10.548-8.901.622 10.749 6.255-10.146-3.068 9.613 8.008-10.339-4.775 10.89 10.203-12.06-6.955 8.986 10.315-11.123-8.041 9.21 12.898-11.003-10.901 9.307 15.532-11.545-12.334 6.289 13.09-8.654-12.216 4.53 13.593-7.914-12.638 2.464 11.688-5.439-10.44 1.25 11.247-5.01-12.081-.619 9.864-2.927-9.738-3.083 9.291-5.242-34.525.508-11.634 14.212 6.192" fill="#229845" fill-rule="evenodd"/><path d="M1823.753 1670.47l-165.46-67.83 56.65-4-68.4-40.22 64.56 19.73-61.18-51.49 65.8 30.7-69.31-65.61 76.76 44.72-57.19-66.33 70.8 51.72-58.63-82.95 70.03 70.11-59.23-99.88 73.47 79.31-40.02-84.18 55.08 78.55-28.83-87.41 50.37 81.27-15.69-75.16 34.61 67.14-7.95-72.33 31.88 77.69 3.95-63.43 18.62 62.62 19.62-59.75 33.37 222.02-12.59 78.02-81.09-43.03z" fill="none" stroke="#231f20" stroke-width="16.668" stroke-miterlimit="22.926" transform="matrix(.15713 0 0 -.1555 244.903 503.189)"/><path d="M531.469 243.418l-26 10.548 8.902.622-10.747 6.255 10.144-3.068-9.613 8.007 10.339-4.774-10.89 10.202 12.06-6.954-8.986 10.315 11.125-8.043-9.213 12.9 11.004-10.903-9.307 15.532 11.545-12.333-6.289 13.09 8.655-12.215-4.53 13.593 7.915-12.638-2.466 11.688 5.439-10.44-1.25 11.247 5.01-12.081.62 9.863 2.926-9.737 3.083 9.291 5.243-34.526-1.978-12.132-12.741 6.691" fill="#229845" fill-rule="evenodd"/><path d="M1839.063 1806.91l-121.43 131.26 16.07-54.47-61.61 50.01 41.07-53.58-69.65 39.29 51.79-50.9-85.72 41.97 68.76-56.25-82.15 30.36 73.22-48.22-98.22 25.89 90.18-41.07-114.29 20.54 100.01-41.08-92.87 8.04 92.87-24.11-91.98-3.57 93.76-18.75-75.9-11.61 75.01-8.93-70.54-17.85 83.93-2.68-58.04-25.9 65.19 4.47-49.11-39.29 219.65 46.43 75.72 31.91-75.72 68.09z" fill="none" stroke="#231f20" stroke-width="16.668" stroke-miterlimit="22.926" transform="matrix(.15713 0 0 -.1555 244.903 503.189)"/><path d="M533.874 222.2l-19.08-20.411 2.525 8.47-9.68-7.777 6.453 8.332-10.945-6.11 8.138 7.916-13.469-6.527 10.804 8.748-12.908-4.722 11.505 7.499-15.433-4.026 14.17 6.386-17.959-3.194 15.715 6.389-14.593-1.25 14.593 3.749-14.453.555 14.733 2.916-11.926 1.805 11.786 1.389-11.084 2.775 13.188.417-9.12 4.028 10.243-.695-7.716 6.11 34.513-7.22 11.898-4.963-11.898-10.588" fill="#229845" fill-rule="evenodd"/><path d="M1875.453 1735.5l-77.87 17.64 19.68-15.99-35.31 2.83 28.66-9.33-35.57-3.15 31.93-5.64-42.16-6.21 39.52-3.34-37.92-9.58 39.15.75-42.7-15.28 43.57 7.67-47.25-21.33 47.19 10.16-36.21-20.51 40.26 14.58-32.94-24.54 39.25 16.79-25.01-23.45 29.86 15.66-21.44-24.39 31.57 20.21-14.83-24.19 22.87 18.1-8.14-26.87 69.11 72.61-25.27 36.8z" fill="none" stroke="#231f20" stroke-width="16.668" stroke-miterlimit="22.926" transform="matrix(.15713 0 0 -.1555 244.903 503.189)"/><path d="M539.592 233.305l-12.236-2.743 3.093 2.487-5.548-.44 4.503 1.45-5.59.49 5.018.878-6.625.965 6.21.52-5.958 1.49 6.151-.117-6.71 2.376 6.847-1.193-7.424 3.317 7.415-1.58-5.69 3.19 6.326-2.268-5.176 3.817 6.167-2.611-3.93 3.646 4.693-2.435-3.37 3.793 4.961-3.143-2.33 3.762 3.594-2.815-1.28 4.179 10.86-11.292-3.97-5.723" fill="#229845" fill-rule="evenodd"/><path d="M1916.023 1781.46l-10.73 79.11-8.09-24.03-9.7 34.06 1.28-30.11-15.39 32.22 5.88-31.88-20.56 37.31 10.7-38.19-22.25 32.17 14.4-36.41-29.25 34.66 22.44-38.14-36.53 36.8 26.04-40.64-31.89 26.74 27.76-32.63-34.53 22.28 29.46-30.89-30.71 15.21 25.12-22.49-30.36 11.57 30-22.5-27.86 5.41 24.98-15.07-28.04-1.78 92.2-39.35 25.63 36.57z" fill="none" stroke="#231f20" stroke-width="16.668" stroke-miterlimit="22.926" transform="matrix(.15713 0 0 -.1555 244.903 503.189)"/><path d="M545.967 226.158l-1.686-12.302-1.271 3.737-1.524-5.297.2 4.683-2.418-5.01.924 4.957-3.23-5.802 1.681 5.939-3.496-5.003 2.263 5.662-4.596-5.39 3.526 5.931-5.74-5.722 4.091 6.32-5.01-4.159 4.361 5.074-5.425-3.464 4.629 4.803-4.826-2.365 3.947 3.497-4.77-1.799 4.714 3.499-4.378-.841 3.925 2.343-4.406.277 14.488 6.12 4.027-5.688" fill="#229845" fill-rule="evenodd"/><path d="M1973.353 1741.24l78.04 16.84-19.83-15.79 35.33 2.49-28.75-9.05 35.53-3.5-31.98-5.32 42.1-6.64-39.56-2.93 37.82-9.98-39.14 1.15 42.55-15.7-43.5 8.1 47.04-21.8-47.08 10.63 36-20.86-40.12 14.99 32.69-24.89-39.07 17.19 24.76-23.71-29.7 15.97 21.22-24.61-31.38 20.54 14.58-24.35-22.68 18.35 7.87-26.96-68.37 73.28 25.63 36.56z" fill="none" stroke="#231f20" stroke-width="16.668" stroke-miterlimit="22.926" transform="matrix(.15713 0 0 -.1555 244.903 503.189)"/><path d="M554.975 232.413l12.263-2.619-3.116 2.456 5.551-.388-4.517 1.408 5.582.544-5.025.827 6.616 1.033-6.217.455 5.943 1.552-6.15-.178 6.686 2.441-6.835-1.26 7.391 3.39-7.397-1.652 5.656 3.243-6.304-2.33 5.137 3.87-6.14-2.673 3.891 3.687-4.667-2.484 3.335 3.827-4.931-3.194 2.29 3.787-3.563-2.854 1.237 4.193-10.743-11.396 4.027-5.685" fill="#229845" fill-rule="evenodd"/><path d="M1972.853 1751.02l70.55 37.36-25.34-.69 28.63 20.85-27.82-11.58 24.94 25.56-27.9-16.52 27.92 32.17-32.15-23.21 22.52 31.96-29.19-26.06 22.42 39.41-28.06-34.22 21.97 46.97-29.18-38.43 14.09 39.15-21.03-37.32 9 40.11-18.84-38.32 3.69 34.08-12.46-31.34.39 32.48-10.78-35.9-4.52 28.01-5.55-28.65-11.32 25.7-5.13-100.1 43.15-11.47z" fill="none" stroke="#231f20" stroke-width="16.668" stroke-miterlimit="22.926" transform="matrix(.15713 0 0 -.1555 244.903 503.189)"/><path d="M554.897 230.892l11.085-5.81-3.982.108 4.499-3.243-4.371 1.801 3.918-3.975-4.383 2.57 4.387-5.003-5.052 3.609 3.538-4.97-4.586 4.052 3.523-6.128-4.41 5.321 3.453-7.304-4.585 5.976 2.214-6.088-3.305 5.804 1.414-6.238-2.96 5.96.58-5.3-1.958 4.873.061-5.05-1.693 5.582-.71-4.356-.873 4.456-1.779-3.997-.806 15.566 6.78 1.784" fill="#229845" fill-rule="evenodd"/><path d="M1956.133 1678.3l43.09-67.21-21.73 13.07 14.69-32.25-18.54 23.77 9.16-34.5-16.19 28.09 8.52-41.77-16.59 36.04 3.91-38.91-12.63 37.05.16-45.35-7.62 43.58-3.95-51.69-6.53 47.82-6.94-41.02v42.83l-11.87-39.34 2.42 42.62-13.53-31.49 4.56 33.41-15.64-28.48 8.27 36.57-17.7-22.18 9.23 27.67-22.47-16.8 44.71 89.71 43.21-11.24z" fill="none" stroke="#231f20" stroke-width="16.668" stroke-miterlimit="22.926" transform="matrix(.15713 0 0 -.1555 244.903 503.189)"/><path d="M552.27 242.2l6.77 10.452-3.414-2.032 2.308 5.015-2.913-3.697 1.439 5.365-2.544-4.368 1.339 6.496-2.607-5.605.614 6.051-1.984-5.762.025 7.053-1.197-6.777-.621 8.038-1.026-7.436-1.09 6.378v-6.66l-1.866 6.118.38-6.628-2.125 4.897.716-5.196-2.457 4.43 1.3-5.688-2.782 3.45 1.45-4.303-3.53 2.612 7.025-13.95 6.79 1.748" fill="#229845" fill-rule="evenodd"/><path d="M548.032 225.995c4.673 0 8.463 3.75 8.463 8.376 0 4.625-3.79 8.375-8.463 8.375-4.675 0-8.463-3.75-8.463-8.375s3.788-8.376 8.463-8.376" fill="#231f20" fill-rule="evenodd"/><path d="M710.41 2032.61l-1.52-71.26-3.992-70.77c-35.79 56.42-79.043 84.6-138.816 102.22-42.266 12.45-37.243 11.25-.336-4.09 66.703-27.74 110.285-65.4 137.074-130.87-130.676 15.14-229.457-25.01-297.777-117.97 92.828 86.08 192.48 118.34 297.777 106.02-62.91-49.18-115.875-105.34-141.352-180.85 44.774 80.92 96.05 131.5 149.149 173.57l.054 3.66.05-3.66c53.095-42.07 104.376-92.65 149.15-173.57-25.481 75.51-78.442 131.67-141.356 180.85 105.297 12.32 204.949-19.94 297.78-106.02-68.32 92.96-167.104 133.11-297.78 117.97 28.492 69.63 81.328 106.04 156.348 133.96 20.004 7.45 29.453 9.91 1.94 3.11-68.721-17.02-121.592-43.21-160.366-104.33l-3.984 70.82-2.043 71.21zm-159.16-256.55c-2.797-24.25-2.457-48.5 9.093-72.76 4.688 5.52 9.37 11.03 14.055 16.54-18.676 9.98-21.176 32.89-23.148 56.22zm25.78 16.95c-2.292-19.84-2.02-39.69 7.442-59.53 3.828 4.52 7.66 9.02 11.496 13.53-15.277 8.16-17.332 26.91-18.937 46zm27.102-2.27c-1.156-9.99-1.02-19.99 3.75-29.97 1.926 2.28 3.856 4.53 5.789 6.81-7.695 4.12-8.726 13.55-9.54 23.16zm50.555 96.48l-16.867-24.19 10.953-2.84 5.914 27.03zm-22.762 11.48l-21.61-30.99 14.032-3.64 7.578 34.63zm25.918 70.77c-187.84 117.24-248.472 39.69-307.886-25.57 21.66 15.29 43.324 29.15 64.984 33.03-24.148-18.11-41.191-36.23-51.137-54.34 17.407 13.15 34.809 20.96 52.203 17.05-39.375-34.8-54.117-69.6-70.312-104.41 26.242 26.16 52.129 52.86 84.16 70.32-16.332-22.55-27.34-45.99-26.633-71.38 17.047 24.52 34.09 44.04 51.137 62.85-3.211-16.33-5.344-32.66 0-49 9.727 26.14 22.535 49.2 35.156 72.44-2.84-18.46-5.68-36.93-8.523-55.4 18.113 47.61 36.226 61.53 54.336 69.25-13.141-15.8-22.727-34.26-24.504-58.6 10.984 31.65 31.945 50.81 54.332 68.19-8.785-23.08-18.481-46.16-12.785-69.25 8.703 22.37 19.359 40.84 30.898 57.53-1.734-18.37-2.695-35.22-7.461-59.66 11.012 13.5 22.02 26.99 33.028 40.48-4.614-15.98-9.231-31.96-13.848-47.94-188.078-15.93-268.953-120.42-261.012-298.3 12.43 38.54 24.86 67.31 37.285 91.62-9.418-40.21-15.101-79.81-7.457-117.18 7.37 34.98 16.426 66.58 26.633 95.88 7.059-110.8 19.578-163.36 35.156-183.24-1.238 55.66.895 106.27 5.328 153.41 7.688-27.73 18.16-71.31 43.68-83.1-24.402 49.6-14.93 80.72-7.457 112.93 3.02-21.66 12.25-39.78 35.156-50.08-12.88 28.32-22.644 57.27-21.308 88.43 6.394-13.49 12.785-26.99 19.179-40.48 2.16 10.93-5.664 51.8-14.918 96.94 12.079-29.14 24.157-56.14 36.223-68.18-9.617 31.97-6.762 63.92-2.13 95.88 12.794-24.15 24.876-47.94 31.962-69.25-45.86-107.16-5.535-156.86 20.242-216.26-6.746 22.37-9.586 44.74-10.656 67.12 11.012-18.82 22.02-37.65 33.027-56.47-6.406 17.05-11.734 34.09-9.59 51.14 23.438-31.41 46.88-50.49 70.317-70.32-21.254 26.97-33.934 53.04-34.094 77.77 12.836-20.43 30.574-30.24 50.074-36.22-21.324 15.38-38.828 34.23-47.941 60.73 11.492-9.82 25.617-15.02 41.547-17.05-20.633 14.18-38.22 30.39-52.203 49.01 11.719-5.33 23.437-10.65 35.156-15.98-15.621 18.11-31.246 36.22-46.875 54.33 14.207-8.87 28.41-17.75 42.617-26.63-19.148 19.06-30.39 37.45-36.222 55.4 15.625-9.23 31.25-18.47 46.875-27.7-16.922 14.39-29.332 29.24-35.157 44.74 14.207-9.57 28.41-16.36 42.614-17.04-16.645 10.45-23.364 25.49-25.571 42.61 11.075-14.25 23.957-22.43 38.356-25.57-7.817 9.24-15.63 18.47-23.438 27.7 14.559-4.61 29.117-9.23 43.68-13.85-19.16 14.71-26.273 26.99-34.094 39.42 10.008-4.79 19.649-10.66 31.96-8.52-16.698 35.79-.323 58.99 17.868 81.49 18.196-22.5 34.575-45.7 17.875-81.49 12.309-2.14 21.953 3.73 31.96 8.52-7.82-12.43-14.936-24.71-34.092-39.42 14.562 4.62 29.12 9.24 43.679 13.85-7.812-9.23-15.625-18.46-23.437-27.7 14.398 3.14 27.28 11.32 38.35 25.57-2.202-17.12-8.921-32.16-25.565-42.61 14.199.68 28.406 7.47 42.613 17.04-5.824-15.5-18.234-30.35-35.156-44.74 15.625 9.23 31.25 18.47 46.875 27.7-5.832-17.95-17.074-36.34-36.223-55.4 14.203 8.88 28.41 17.76 42.614 26.63l-46.875-54.33c11.718 5.33 23.437 10.65 35.156 15.98-13.981-18.62-31.567-34.83-52.2-49.01 15.93 2.03 30.055 7.23 41.547 17.05-9.113-26.5-26.617-45.35-47.941-60.73 19.5 5.98 37.234 15.79 50.074 36.22-.164-24.73-12.843-50.8-34.093-77.77 23.437 19.83 46.875 38.91 70.312 70.32 2.148-17.05-3.184-34.09-9.586-51.14 11.008 18.82 22.016 37.65 33.024 56.47-1.067-22.38-3.907-44.75-10.653-67.12 25.774 59.4 66.102 109.1 20.242 216.26 7.086 21.31 19.168 45.1 31.96 69.25 4.634-31.96 7.49-63.91-2.128-95.88 12.067 12.04 24.14 39.04 36.219 68.18-9.25-45.14-17.074-86.01-14.914-96.94 6.395 13.49 12.785 26.99 19.176 40.48 1.34-31.16-8.426-60.11-21.305-88.43 22.906 10.3 32.137 28.42 35.156 50.08 7.473-32.21 16.942-63.33-7.457-112.93 25.52 11.79 35.989 55.37 43.68 83.1 4.434-47.14 6.566-97.75 5.324-153.41 15.578 19.88 28.098 72.44 35.152 183.24 10.21-29.3 19.27-60.9 26.64-95.88 7.65 37.37 1.96 76.97-7.46 117.18 12.43-24.31 24.86-53.08 37.29-91.62 7.94 177.88-72.934 282.37-261.012 298.3-4.618 15.98-9.235 31.96-13.848 47.94 11.008-13.49 22.016-26.98 33.023-40.48-4.761 24.44-5.726 41.29-7.457 59.66 11.539-16.69 22.196-35.16 30.895-57.53 5.699 23.09-3.996 46.17-12.781 69.25 22.386-17.38 43.347-36.54 54.332-68.19-1.782 24.34-11.367 42.8-24.504 58.6 18.109-7.72 36.222-21.64 54.332-69.25-2.84 18.47-5.684 36.94-8.524 55.4 12.625-23.24 25.43-46.3 35.16-72.44 5.344 16.34 3.208 32.67 0 49 17.044-18.81 34.09-38.33 51.137-62.85.703 25.39-10.3 48.83-26.636 71.38 32.035-17.46 57.923-44.16 84.163-70.32-16.19 34.81-30.94 69.61-70.312 104.41 17.395 3.91 34.802-3.9 52.202-17.05-9.94 18.11-26.99 36.23-51.135 54.34 21.656-3.88 43.315-14.54 64.985-29.84-49.76 61.42-117.474 139.12-307.888 22.38 17.75 16.85 28.762 37.1 35.156 59.66-15.628-14.92-31.253-24.51-46.875-22.38 19.887 11 28.055 33.74 30.895 61.8-8.88-7.82-17.758-15.63-26.633-23.44 5.328 14.91 6.395 29.83 3.195 44.74-3.535-8.17-8.144-16.34-20.242-24.5 5.336 22.54 2.844 43.15-3.195 62.85-.352-16.69-6.391-33.38-18.11-50.07l-4.847 65.66v35.55l-1.313-17.72-1.3 17.72v-35.38l-4.844-65.83c-11.72 16.69-17.758 33.38-18.11 50.07-6.042-19.7-8.531-40.31-3.195-62.85-12.097 8.16-16.707 16.33-20.242 24.5-3.2-14.91-2.133-29.83 3.195-44.74-8.88 7.81-17.754 15.62-26.632 23.44 2.835-28.06 11.007-50.8 30.894-61.8-15.621-2.13-31.25 7.46-46.875 22.38 6.395-22.56 17.402-42.81 35.156-59.66z" fill="none" stroke="#231f20" stroke-width="16.535" stroke-miterlimit="22.926" transform="matrix(.15713 0 0 -.1555 244.903 503.189)"/><path d="M356.53 187.103l-.24 11.081-.627 11.005c-5.623-8.773-12.42-13.156-21.812-15.896-6.641-1.936-5.852-1.749-.053.636 10.481 4.314 17.33 10.17 21.539 20.352-20.533-2.355-36.055 3.889-46.79 18.345 14.586-13.386 30.244-18.403 46.79-16.487-9.885 7.648-18.208 16.381-22.21 28.124 7.034-12.584 15.092-20.45 23.435-26.992l.008-.569.008.57c8.343 6.541 16.4 14.407 23.436 26.99-4.004-11.742-12.325-20.475-22.211-28.123 16.545-1.916 32.203 3.1 46.79 16.487-10.735-14.456-26.257-20.7-46.79-18.345 4.477-10.828 12.779-16.49 24.567-20.832 3.143-1.159 4.628-1.541.305-.484-10.799 2.647-19.106 6.72-25.199 16.224l-.626-11.013-.32-11.073zm-25.01 39.895c-.439 3.771-.386 7.542 1.43 11.315.736-.859 1.472-1.715 2.208-2.572-2.935-1.552-3.328-5.115-3.637-8.743zm4.052-2.636c-.36 3.086-.318 6.172 1.169 9.258.601-.703 1.203-1.403 1.806-2.104-2.4-1.27-2.723-4.185-2.975-7.154zm4.258.353c-.182 1.554-.16 3.109.59 4.66.302-.354.605-.704.909-1.058-1.21-.64-1.371-2.107-1.5-3.602zm7.944-15.003l-2.65 3.762 1.72.441.93-4.203zm-3.577-1.785l-3.395 4.819 2.204.566 1.191-5.385zm4.072-11.006c-29.515-18.231-39.042-6.172-48.378 3.977 3.404-2.378 6.808-4.533 10.211-5.137-3.794 2.817-6.472 5.634-8.035 8.45 2.735-2.044 5.47-3.259 8.203-2.65-6.187 5.41-8.504 10.823-11.048 16.236 4.123-4.068 8.19-8.22 13.224-10.936-2.566 3.507-4.296 7.152-4.185 11.1 2.679-3.812 5.357-6.848 8.035-9.773-.504 2.54-.84 5.079 0 7.62 1.529-4.065 3.541-7.651 5.524-11.265l-1.339 8.615c2.846-7.404 5.692-9.568 8.538-10.769-2.065 2.457-3.571 5.328-3.85 9.113 1.725-4.922 5.019-7.902 8.537-10.604-1.38 3.589-2.904 7.178-2.01 10.769 1.368-3.48 3.043-6.351 4.856-8.947-.273 2.857-.424 5.477-1.173 9.278 1.73-2.1 3.46-4.197 5.19-6.295l-2.176 7.455c-29.553 2.477-42.26 18.726-41.013 46.388 1.953-5.993 3.907-10.467 5.859-14.248-1.48 6.253-2.373 12.411-1.172 18.223a119.696 119.696 0 014.185-14.91c1.11 17.23 3.076 25.403 5.524 28.495-.194-8.656.14-16.526.837-23.857 1.208 4.313 2.854 11.09 6.864 12.923-3.835-7.713-2.346-12.553-1.172-17.561.475 3.368 1.925 6.186 5.524 7.787-2.024-4.404-3.558-8.906-3.348-13.751l3.014 6.295c.34-1.7-.89-8.056-2.345-15.075 1.898 4.531 3.796 8.73 5.692 10.602-1.51-4.971-1.062-9.94-.334-14.91 2.01 3.756 3.908 7.455 5.022 10.77-7.206 16.663-.87 24.392 3.18 33.63-1.06-3.48-1.506-6.958-1.674-10.438l5.19 8.781c-1.007-2.651-1.844-5.301-1.507-7.953 3.682 4.885 7.366 7.852 11.048 10.936-3.34-4.194-5.332-8.248-5.357-12.094 2.017 3.177 4.804 4.702 7.868 5.632-3.35-2.391-6.1-5.323-7.533-9.444 1.806 1.527 4.026 2.336 6.529 2.652-3.242-2.205-6.006-4.726-8.203-7.622 1.841.83 3.683 1.657 5.524 2.485l-7.365-8.448 6.696 4.14c-3.009-2.963-4.775-5.823-5.691-8.614l7.365 4.307c-2.659-2.237-4.609-4.547-5.524-6.957 2.232 1.488 4.464 2.544 6.696 2.65-2.616-1.625-3.672-3.964-4.018-6.626 1.74 2.216 3.764 3.488 6.027 3.976l-3.683-4.308 6.863 2.154c-3.01-2.287-4.128-4.197-5.357-6.13 1.573.745 3.087 1.658 5.022 1.325-2.624-5.566-.05-9.173 2.807-12.672 2.86 3.499 5.433 7.106 2.81 12.672 1.933.333 3.449-.58 5.021-1.325-1.229 1.933-2.347 3.843-5.357 6.13l6.863-2.154-3.682 4.308c2.262-.488 4.286-1.76 6.026-3.976-.346 2.662-1.402 5-4.017 6.626 2.23-.106 4.463-1.162 6.695-2.65-.915 2.41-2.865 4.72-5.524 6.957l7.366-4.307c-.917 2.791-2.683 5.65-5.692 8.615 2.232-1.381 4.464-2.762 6.696-4.141l-7.365 8.448 5.524-2.485c-2.197 2.896-4.96 5.417-8.202 7.622 2.503-.316 4.722-1.125 6.528-2.652-1.432 4.121-4.183 7.053-7.533 9.444 3.064-.93 5.85-2.455 7.868-5.632-.026 3.846-2.018 7.9-5.357 12.094 3.683-3.084 7.365-6.051 11.048-10.936.338 2.652-.5 5.302-1.506 7.953l5.189-8.781c-.168 3.48-.614 6.959-1.674 10.437 4.05-9.237 10.386-16.966 3.18-33.63 1.114-3.314 3.012-7.013 5.023-10.769.728 4.97 1.176 9.939-.335 14.91 1.896-1.872 3.793-6.07 5.691-10.602-1.453 7.02-2.683 13.375-2.343 15.075l3.013-6.295c.21 4.845-1.324 9.347-3.348 13.751 3.6-1.601 5.05-4.42 5.524-7.787 1.174 5.008 2.662 9.848-1.172 17.561 4.01-1.833 5.655-8.61 6.864-12.923.697 7.33 1.032 15.201.836 23.857 2.448-3.092 4.415-11.265 5.524-28.495a119.584 119.584 0 014.186 14.91c1.202-5.812.308-11.97-1.172-18.223 1.953 3.78 3.906 8.255 5.859 14.248 1.248-27.662-11.46-43.91-41.013-46.388a26656.8 26656.8 0 01-2.176-7.455l5.19 6.295c-.749-3.8-.9-6.421-1.172-9.278 1.813 2.596 3.487 5.468 4.854 8.947.896-3.591-.628-7.18-2.008-10.77 3.517 2.703 6.81 5.683 8.537 10.605-.28-3.785-1.786-6.656-3.85-9.113 2.845 1.2 5.691 3.365 8.537 10.769l-1.34-8.615c1.984 3.614 3.996 7.2 5.525 11.265.84-2.541.504-5.08 0-7.62 2.678 2.925 5.357 5.96 8.035 9.774.11-3.949-1.618-7.594-4.185-11.1 5.034 2.715 9.101 6.867 13.224 10.935-2.544-5.413-4.861-10.825-11.048-16.237 2.734-.608 5.469.607 8.203 2.652-1.562-2.817-4.241-5.634-8.035-8.45 3.403.603 6.806 2.26 10.211 4.64-7.819-9.552-18.459-21.635-48.378-3.48 2.789-2.62 4.52-5.77 5.524-9.278-2.456 2.32-4.911 3.811-7.366 3.48 3.125-1.71 4.409-5.247 4.855-9.61l-4.185 3.645c.837-2.319 1.005-4.639.502-6.958-.555 1.27-1.28 2.541-3.18 3.81.838-3.505.446-6.71-.503-9.773-.055 2.595-1.004 5.19-2.845 7.786l-.762-10.21v-5.529l-.206 2.756-.204-2.756v5.502l-.762 10.237c-1.841-2.595-2.79-5.19-2.845-7.786-.95 3.063-1.34 6.268-.502 9.773-1.901-1.269-2.625-2.54-3.18-3.81-.503 2.319-.336 4.64.501 6.958l-4.184-3.645c.445 4.363 1.73 7.9 4.854 9.61-2.455.331-4.91-1.16-7.366-3.48 1.005 3.508 2.735 6.657 5.524 9.277" fill="#229845" fill-rule="evenodd"/><path d="M451.55 383.204c-6.1-5.175-13.349-9.008-20.666-12.205-9.8-4.28-20.198-7.703-30.393-10.98-7.294-2.912-13.294-7.45-17.423-14.132-10.427-16.88-5.823-43.334-2.438-61.766 5.45-25.224 3.71-50.14-6.415-73.99l-.199-.469.511-.04c51.127-4.047 102.441-2.944 153.559.637l.515.036-.2.471c-12.11 28.708-10.667 57.865-3.841 87.683 3.227 14.859 4.62 32.346-3.608 45.937-8.69 14.356-23.85 17.937-38.608 23.38-10.409 3.838-21.631 8.452-30.319 15.444l-.24.194-.236-.2" fill="#229845" fill-rule="evenodd"/><path d="M1315.133 771.57c-38.82 33.274-84.95 57.926-131.52 78.481-62.36 27.531-128.54 49.539-193.426 70.613-46.418 18.723-84.601 47.902-110.88 90.876-66.358 108.54-37.061 278.66-15.518 397.19 34.687 162.2 23.613 322.42-40.825 475.8l-1.265 3.01 3.254.26c325.38 26.02 651.95 18.93 977.27-4.1l3.28-.23-1.27-3.03c-77.07-184.61-67.89-372.1-24.45-563.85 20.54-95.55 29.4-208-22.96-295.4-55.3-92.315-151.78-115.342-245.71-150.346-66.24-24.68-137.66-54.352-192.95-99.317l-1.53-1.242-1.5 1.285z" fill="none" stroke="#231f20" stroke-width="1.8" stroke-miterlimit="22.926" transform="matrix(.15713 0 0 -.1555 244.903 503.189)"/><path d="M372.024 208.08c.315.935 10.387 39.719 10.387 39.719 46.216-.053 92.433-.106 138.65-.157l8.497-38.782c-51.724-3.375-104.132-4.05-157.534-.78" fill="#d3d2d2" fill-rule="evenodd"/><path d="M452.604 389.746c-2.44.92-6.916-1.253-8.154 2.022-.437 1.154-.51 4.837.29 6.497.802 1.66 1.239 3.466 2.84 4.332 1.603.866 2.621 1.083 4.078.65 3.023-.9 7.696-2.204 8.444-5.92.074-.361-.145-5.705-.145-6.282s0-1.805-1.164-2.96c-1.166-1.154-5.024-.938-5.316 0-.29.939-.8 1.877-.873 1.661" fill="#fff200" fill-rule="evenodd"/><path d="M1321.843 729.5c-15.52-5.922-44.01 8.055-51.89-13-2.78-7.426-3.25-31.105 1.85-41.785 5.1-10.676 7.88-22.285 18.07-27.856 10.2-5.57 16.68-6.961 25.95-4.175 19.24 5.781 48.98 14.168 53.74 38.07.47 2.32-.92 36.68-.92 40.391 0 3.714 0 11.609-7.41 19.035-7.42 7.425-31.97 6.035-33.83 0-1.85-6.035-5.09-12.071-5.56-10.68z" fill="none" stroke="#231f20" stroke-width="8.334" stroke-miterlimit="22.926" transform="matrix(.15713 0 0 -.1555 244.903 503.189)"/><path d="M372.76 380.145c-4.935-8.049-20.825-29.488-29.205-12.074-1.592 3.307-1.36 6.66.27 9.906 4.095 8.144 13.748 2.786 11.488-1.237-5.389 1.238-4.356-8.884 2.326-5.914 4.05 1.8 9.835 5.889 15.12 9.32M452.896 389.818c-2.27-.102-2.54 13.014.218 12.635 2.756-.38 1.796-1.685 2.778-1.003 1.066.741 7.609-8.551 3.65-11.673-.938-.741-1.118-1.131-1.481-1.347-1.876-1.116-3.179-.798-4.208.21-.467.457-.531.755-.957 1.178M531.74 380.145c4.934-8.049 20.825-29.488 29.204-12.074 1.592 3.307 1.361 6.66-.271 9.906-4.094 8.144-13.748 2.786-11.488-1.237 5.391 1.238 4.357-8.884-2.326-5.914-4.049 1.8-9.834 5.889-15.119 9.32" fill="#00a650" fill-rule="evenodd"/><path d="M548.54 367.795c-18.899 17.357-37.894 26.46-57.025 24.072l-4.401 6.578c25.03-1.237 48.672-6.423 66.021-29.514l-2.134-1.778c-1.692-1.412-.817-.866-2.46.642" fill="#d2cb54" fill-rule="evenodd"/><path d="M1932.403 870.66c-120.28-111.621-241.17-170.152-362.92-154.797-9.33-14.097-18.67-28.199-28.01-42.3 159.3 7.953 309.76 41.304 420.17 189.789-4.53 3.808-9.05 7.625-13.58 11.433-10.77 9.078-5.2 5.57-15.66-4.125zM1601.233 711.629l6.5-35.121" fill="none" stroke="#231f20" stroke-width="8.334" stroke-miterlimit="22.926" transform="matrix(.15713 0 0 -.1555 244.903 503.189)"/><path d="M459.503 391.4c2.938-.94 5.877-2.092 8.817-4.717 2.514-1.857 5.077-3.516 7.614-2.937 5.394 1.23 4.975 6.924 11.134 6.475 3.288-.24 5.033 3.183 2.777 5.739-2.858 2.413-3.617 2.842-2.986 6.53.356 2.068.916 4.287 1.08 4.396 1.807 5.548-3.878 8.137-9.753 7.831-2.1-.109-4.115-1.048-6.053-2.564-4.178-4-8.303-8.04-13.345-11.398 1.073-1.835 1.55-4.586.715-9.355" fill="#fff200" fill-rule="evenodd"/><path d="M1365.753 718.863c18.7 6.051 37.4 13.453 56.11 30.332 16 11.946 32.31 22.61 48.46 18.887 34.33-7.906 31.66-44.523 70.86-41.637 20.92 1.539 32.03-20.468 17.67-36.902-18.19-15.52-23.02-18.277-19-41.996 2.26-13.297 5.83-27.563 6.87-28.27 11.5-35.672-24.68-52.32-62.07-50.355-13.36.699-26.19 6.738-38.52 16.488-26.59 25.723-52.84 51.703-84.93 73.297 6.83 11.797 9.86 29.492 4.55 60.156z" fill="none" stroke="#231f20" stroke-width="8.334" stroke-miterlimit="22.926" transform="matrix(.15713 0 0 -.1555 244.903 503.189)"/><path d="M481.336 413.61c.838-1.042 1.308-2.353 1.468-3.891.162-1.537.014-3.303-.385-5.251-1.328-2.807-1.07-6.862-1.16-10.88-.04-3.315-5.243-5.075-8.758-4.038-3.105.916-5.812 4.897-9.536 6.4-.985.398-1.919.71-2.657.858.085-1.333-.013-2.943-.352-4.92l.072-.223c2.825-.899 5.65-2.008 8.476-4.5 2.448-1.785 4.941-3.379 7.411-2.823 5.25 1.182 4.842 6.655 10.836 6.224 3.2-.23 4.9 3.06 2.703 5.515-2.783 2.32-3.522 2.732-2.906 6.277.346 1.987.891 4.12 1.052 4.225 1.4 4.243-1.82 6.685-6.077 7.357a7.5 7.5 0 01-.187-.33" fill="#00a650" fill-rule="evenodd"/><path d="M439.922 226.986c-1.884 3.461-12.616 1.939-10.033-3.29-3.455-2.783-3.366-5.128.265-7.034-1.362-4.121.808-4.866 4.586-4.078 2.479-2.738 4.96-2.76 7.44-.065 2.176.24 3.271 1.908 2.79 5.656-.908 1.817-1.816 3.637-2.723 5.456 0 0-2.325 3.485-2.325 3.355" fill="#fff" fill-rule="evenodd"/><path d="M1241.133 1776.14c-11.99-22.26-80.29-12.47-63.85 21.15-21.99 17.9-21.42 32.98 1.69 45.24-8.67 26.5 5.14 31.29 29.18 26.22 15.78 17.61 31.57 17.75 47.35.42 13.85-1.55 20.82-12.27 17.76-36.37-5.78-11.69-11.56-23.39-17.33-35.09 0 0-14.8-22.41-14.8-21.57z" fill="none" stroke="#231f20" stroke-width="8.334" stroke-miterlimit="22.926" transform="matrix(.15713 0 0 -.1555 244.903 503.189)"/><path d="M550.426 381.573c-19.864 15.447-43.368 17.404-61.785 16.428-2.687 1.835-1.49 3.253-1.235 5.285 24.462-2.669 49.637.864 67.615-20.576l-2.134-1.778c-1.692-1.411-.7-.727-2.46.641" fill="#d2cb54" fill-rule="evenodd"/><path d="M1944.403 782.055c-126.42-99.328-276-111.918-393.21-105.637-17.1-11.801-9.49-20.922-7.86-33.988 155.68 17.16 315.9-5.555 430.31 132.312-4.53 3.813-9.05 7.629-13.58 11.438-10.77 9.074-4.45 4.675-15.66-4.125z" fill="none" stroke="#231f20" stroke-width="8.334" stroke-miterlimit="22.926" transform="matrix(.15713 0 0 -.1555 244.903 503.189)"/><path d="M459.827 397.953c2.89.307 5.78-.52 8.669-2.481 6.16-2.907 9.456-2.127 9.886 2.339.197 4.22-.377 7.796-5.686 6.432-2.956-.76-4.937-2.713-7.612-4.162-2.573-1.395-5.246-2.615-5.257-2.128" fill="#d2cb54" fill-rule="evenodd"/><path d="M1367.813 676.723c18.39-1.973 36.78 3.343 55.17 15.957 39.21 18.691 60.18 13.675 62.92-15.043 1.25-27.141-2.4-50.133-36.19-41.364-18.81 4.887-31.42 17.45-48.44 26.766-16.38 8.969-33.39 16.816-33.46 13.684z" fill="none" stroke="#231f20" stroke-width="8.334" stroke-miterlimit="22.926" transform="matrix(.15713 0 0 -.1555 244.903 503.189)"/><path d="M463.04 398.756c.751.349 14.986 2.348 14.986 2.348-.095-1.51.809-.824-.038-3.694-.569.091-15.349 1.903-14.948 1.346" fill="#fff200" fill-rule="evenodd"/><path d="M1388.263 671.563c4.78-2.247 95.37-15.102 95.37-15.102-.6 9.711 5.15 5.297-.24 23.754-3.62-.586-97.68-12.238-95.13-8.652z" fill="none" stroke="#231f20" stroke-width="8.334" stroke-miterlimit="22.926" transform="matrix(.15713 0 0 -.1555 244.903 503.189)"/><path d="M463.169 398.5c.822.117 14.907-1.4 14.907-1.4-.137-2.638-.957-2.513-3.283-2.979-.727-1.077-11.945 4.38-11.624 4.38" fill="#00a650" fill-rule="evenodd"/><path d="M1389.083 673.203c5.23-.746 94.87 9.012 94.87 9.012-.87 16.957-6.09 16.156-20.89 19.148-4.63 6.926-76.02-28.16-73.98-28.16z" fill="none" stroke="#231f20" stroke-width="8.334" stroke-miterlimit="22.926" transform="matrix(.15713 0 0 -.1555 244.903 503.189)"/><path d="M493.776 385.982c22.976-24.561-20.394-14.348-8.477-4.743-.12-8.088 17.45-10.478 8.477 4.743" fill="#00a650" fill-rule="evenodd"/><path d="M507.538 369.202l-4.915 8.998-1.107-.852 6.022-8.146M469.882 381.129l-8.34 6.04-.63-1.238 8.97-4.802M528.211 372.485l-6.775 12.402-1.524-1.173 8.3-11.23M526.703 419.603l-22.506-10.474 2.252-.654 20.254 11.128M521.83 423.998l-12.413-9.136 1.453-.122 10.96 9.258M519.7 412.002l8.968 3.16-9.091-.972.123-2.188M512.083 408.84c.737 0 22.605 1.58 22.605 1.58l-21.745.123-.86-1.703M527.072 407.503c.86-.73 9.706-2.675 9.706-2.675l-7.495 4.134-2.211-1.46M518.103 405.922l16.954-3.77-15.357 5.35-1.597-1.58" fill="#00a650" fill-rule="evenodd"/><path d="M494.39 405.922c31.986 12.604 7.126 26.466-2.702 8.39 19.028 10.684 17.47.396 2.703-8.39M533.332 368.594l-4.646 12.402-1.726-1.173 6.372-11.23M478.238 403.058c3.617 9.804-11.504 1.704-16.262-3.9 2.282.864 4.554 2.072 8.382 4.466 4.13 2.827 6.533 1.039 7.88-.566" fill="#00a650" fill-rule="evenodd"/><path d="M1875.893 822.762l22.86-27.438M1801.573 769.598l22.87-27.438" fill="none" stroke="#231f20" stroke-width="8.334" stroke-miterlimit="22.926" transform="matrix(.15713 0 0 -.1555 244.903 503.189)"/><path d="M539.044 367.963c1.563-8.827 3.554-8.047 5.974-1.197-.512-2.888-1.243-5.09-2.195-6.765-1.504-2.646-1.718-1.226-2.671 1.42-1.017 2.826-2.076 6.456-1.108 6.542" fill="#231f20" fill-rule="evenodd"/><path d="M1714.793 730.902l12.36-33.507M1885.613 742.16l22.86-27.441M1813.303 706.391l11.99-33.649M1722.733 686.449l4.45-35.441M1605.443 675.996l-.6-35.715" fill="none" stroke="#231f20" stroke-width="8.334" stroke-miterlimit="22.926" transform="matrix(.15713 0 0 -.1555 244.903 503.189)"/><path d="M381.765 248.19c46.268-4.573 92.54-4.383 138.808-.673-1.178 15.455 1.743 32.831 4.463 46.836 2.58 13.288-.624-7.805 2.815 20.886-49.242-6.372-100.281-5.34-152.38.072-.09-11.497 8.86-55.638 6.294-67.122" fill="#2498dc" fill-rule="evenodd"/><path d="M871.015 1639.79c294.458 29.4 588.938 28.18 883.398 4.32-7.5-99.38 11.09-211.12 28.4-301.18 16.42-85.45-3.97 50.19 17.92-134.31-313.39 40.98-638.21 34.34-969.78-.46-.571 73.93 56.39 357.78 40.062 431.63z" fill="none" stroke="#231f20" stroke-width="16.535" stroke-miterlimit="22.926" transform="matrix(.15713 0 0 -.1555 244.903 503.189)"/><path d="M460.23 226.986c1.885 3.461 12.615 1.939 10.033-3.29 3.454-2.783 3.366-5.128-.265-7.034 1.36-4.121-.808-4.866-4.585-4.078-2.481-2.738-4.96-2.76-7.442-.065-2.175.24-3.271 1.908-2.79 5.656a17849.7 17849.7 0 012.724 5.456s2.326 3.485 2.326 3.355" fill="#fff" fill-rule="evenodd"/><path d="M1370.383 1776.14c11.99-22.26 80.28-12.47 63.85 21.15 21.98 17.9 21.42 32.98-1.69 45.24 8.66 26.5-5.14 31.29-29.18 26.22-15.79 17.61-31.57 17.75-47.36.42-13.84-1.55-20.82-12.27-17.76-36.37 5.78-11.69 11.56-23.39 17.34-35.09 0 0 14.8-22.41 14.8-21.57z" fill="none" stroke="#231f20" stroke-width="8.334" stroke-miterlimit="22.926" transform="matrix(.15713 0 0 -.1555 244.903 503.189)"/><path d="M452.993 256.776c-18.785 7.917-30.9 24.03-21.655 50.728 8.822-4.814 18.561-11.859 31.072-11.485-16.887-11.598-15.383-25.179-9.417-39.243" fill="#e39125" fill-rule="evenodd"/><path d="M1324.323 1584.57c-119.55-50.91-196.65-154.53-137.82-326.21 56.15 30.96 118.13 76.26 197.75 73.86-107.47 74.58-97.9 161.91-59.93 252.35z" fill="none" stroke="#231f20" stroke-width="9.449" stroke-linecap="round" stroke-linejoin="round" stroke-miterlimit="22.926" transform="matrix(.15713 0 0 -.1555 244.903 503.189)"/><path d="M355.958 367.795c18.9 17.357 37.896 26.46 57.025 24.072l4.402 6.578c-25.03-1.237-48.672-6.423-66.02-29.514l2.133-1.778c1.693-1.412.818-.866 2.46.642" fill="#d2cb54" fill-rule="evenodd"/><path d="M706.777 870.66c120.28-111.621 241.176-170.152 362.916-154.797 9.34-14.097 18.67-28.199 28.01-42.3-159.29 7.953-309.754 41.304-420.16 189.789 4.523 3.808 9.05 7.625 13.578 11.433 10.773 9.078 5.203 5.57 15.656-4.125zM1037.953 711.629l-6.51-35.121" fill="none" stroke="#231f20" stroke-width="8.334" stroke-miterlimit="22.926" transform="matrix(.15713 0 0 -.1555 244.903 503.189)"/><path d="M444.997 391.4c-2.94-.94-5.878-2.092-8.817-4.717-2.515-1.857-5.078-3.516-7.614-2.937-5.394 1.23-4.976 6.924-11.136 6.475-3.287-.24-5.031 3.183-2.776 5.739 2.86 2.413 3.617 2.842 2.985 6.53-.353 2.068-.916 4.287-1.08 4.396-1.806 5.548 3.879 8.137 9.755 7.831 2.098-.109 4.114-1.048 6.053-2.564 4.178-4 8.303-8.04 13.345-11.398-1.073-1.835-1.55-4.586-.715-9.355" fill="#fff200" fill-rule="evenodd"/><path d="M1273.433 718.863c-18.71 6.051-37.41 13.453-56.11 30.332-16.01 11.946-32.32 22.61-48.46 18.887-34.33-7.906-31.67-44.523-70.87-41.637-20.92 1.539-32.02-20.468-17.67-36.902 18.2-15.52 23.02-18.277 19-41.996-2.25-13.297-5.83-27.563-6.87-28.27-11.5-35.672 24.68-52.32 62.08-50.355 13.35.699 26.18 6.738 38.52 16.488 26.59 25.723 52.84 51.703 84.93 73.297-6.83 11.797-9.86 29.492-4.55 60.156z" fill="none" stroke="#231f20" stroke-width="8.334" stroke-miterlimit="22.926" transform="matrix(.15713 0 0 -.1555 244.903 503.189)"/><path d="M423.162 413.61c-.836-1.041-1.307-2.353-1.467-3.89-.162-1.538-.015-3.304.386-5.252 1.326-2.806 1.07-6.862 1.16-10.88.039-3.315 5.242-5.075 8.758-4.038 3.105.916 5.812 4.896 9.536 6.4.984.397 1.919.711 2.657.858-.086-1.332.011-2.943.35-4.92l-.071-.223c-2.826-.899-5.65-2.008-8.474-4.5-2.449-1.785-4.942-3.379-7.412-2.823-5.25 1.182-4.843 6.655-10.837 6.224-3.2-.23-4.898 3.06-2.703 5.514 2.783 2.32 3.521 2.733 2.907 6.278-.346 1.987-.893 4.12-1.051 4.224-1.4 4.244 1.82 6.686 6.074 7.358a7.5 7.5 0 00.187-.33" fill="#00a650" fill-rule="evenodd"/><path d="M418.313 389.917c-7.093.549-11.621-1.067-18.843-10.275-5.883-7.5-7.593-15.343-16.448-20.323-9.137-5.138-20.335-5.603-29.08-3.952-12.94 2.443-23.32 13.15-22.418 26.695 1.041 15.634 20.205 25.184 38.024 17.25-4.353-.447-9.747-5.55-15.23-11.02-11.747 2.209-23.323-17.766-7.879-27.132 9.274-4.122 17.655-5.016 24.635-.618 4.537 2.859 5.449 6.04 7.975 10.425 7.59 13.182 15.997 23.776 34.432 23.95-1.506-2.496-.165-4.073 2.811-4.626 1.54-.105.481-.27 2.021-.374" fill="#fff200" fill-rule="evenodd"/><path d="M1103.613 728.398c-45.14-3.527-73.96 6.864-119.922 66.079-37.441 48.226-48.324 98.664-104.68 130.687-58.144 33.039-129.41 36.027-185.066 25.41-82.348-15.711-148.41-84.558-142.672-171.66 6.625-100.539 128.586-161.949 241.992-110.93-27.707 2.875-62.035 35.692-96.933 70.86-74.758-14.199-148.426 114.254-50.137 174.48 59.019 26.504 112.355 32.254 156.777 3.973 28.879-18.383 34.68-38.836 50.754-67.039 48.309-84.766 101.813-152.891 219.137-154.008-9.59 16.047-1.05 26.188 17.89 29.746 9.8.672 3.06 1.734 12.86 2.402z" fill="none" stroke="#231f20" stroke-width="8.334" stroke-linecap="round" stroke-linejoin="round" stroke-miterlimit="22.926" transform="matrix(.15713 0 0 -.1555 244.903 503.189)"/><path d="M363.537 396.568c-7.793 1.17-15.156 1.105-20.889-3.916-10.493-9.194-10.57-24.775 1.937-32.402 5.085-3.1 11.914-4.474 20.179-4.428 2.535.071 4.96.3 7.346.684 1.82.293 3.62.678 5.426 1.157 5.581 1.477 9.572 4.426 12.869 9.23 2.866 4.175 4.857 8.87 8.708 13.073 8.107 8.849 11.083 10.35 17.128 10.085-1.542.104.517-.012-1.025.092-1.827.708-2.62 2.069-2.32 3.76-23.282-.525-24.16-32.935-46.067-35.345-6.041-1.94-12.926-.715-20.39 2.602-15.444 9.366-3.868 29.341 7.878 27.133 3.164 3.155 6.299 6.187 9.22 8.275" fill="#00a650" fill-rule="evenodd"/><path d="M354.072 381.573c19.864 15.447 43.369 17.404 61.785 16.428 2.687 1.835 1.491 3.253 1.235 5.285-24.462-2.669-49.637.864-67.614-20.576l2.134-1.778c1.692-1.411.7-.727 2.46.641" fill="#d2cb54" fill-rule="evenodd"/><path d="M694.773 782.055c126.418-99.328 276.004-111.918 393.21-105.637 17.1-11.801 9.49-20.922 7.86-33.988-155.68 17.16-315.898-5.555-430.308 132.312 4.527 3.813 9.054 7.629 13.578 11.438 10.773 9.074 4.457 4.675 15.66-4.125z" fill="none" stroke="#231f20" stroke-width="8.334" stroke-miterlimit="22.926" transform="matrix(.15713 0 0 -.1555 244.903 503.189)"/><path d="M444.672 397.953c-2.89.307-5.778-.52-8.668-2.481-6.16-2.907-9.456-2.127-9.886 2.339-.197 4.22.375 7.796 5.685 6.432 2.957-.76 4.938-2.713 7.611-4.162 2.574-1.395 5.247-2.615 5.258-2.128" fill="#d2cb54" fill-rule="evenodd"/><path d="M1271.363 676.723c-18.39-1.973-36.77 3.343-55.16 15.957-39.21 18.691-60.18 13.675-62.92-15.043-1.25-27.141 2.39-50.133 36.18-41.364 18.82 4.887 31.43 17.45 48.44 26.766 16.38 8.969 33.39 16.816 33.46 13.684z" fill="none" stroke="#231f20" stroke-width="8.334" stroke-miterlimit="22.926" transform="matrix(.15713 0 0 -.1555 244.903 503.189)"/><path d="M441.33 398.5c-.82.117-14.8 1.321-14.8 1.321.136-2.637.851-5.234 3.177-5.7.726-1.077 11.943 4.38 11.623 4.38" fill="#fff200" fill-rule="evenodd"/><path d="M1250.093 673.203c-5.22-.746-94.19-8.492-94.19-8.492.87 16.957 5.42 33.66 20.22 36.652 4.62 6.926 76.01-28.16 73.97-28.16z" fill="none" stroke="#231f20" stroke-width="8.334" stroke-miterlimit="22.926" transform="matrix(.15713 0 0 -.1555 244.903 503.189)"/><path d="M449.859 385.156c-5.9-5.004-12.948-8.713-20.024-11.805-9.718-4.244-20.032-7.635-30.129-10.88l-.098-.032-.095-.038c-7.814-3.119-14.24-8.017-18.661-15.172-10.875-17.604-6.31-44.337-2.78-63.56l.008-.044.01-.044c5.34-24.712 3.649-49.087-6.27-72.454l-1.59-3.745 4.09-.323c51.257-4.057 102.7-2.955 153.948.634l4.123.29-1.592 3.774c-11.891 28.193-10.407 56.855-3.7 86.145 3.38 15.563 4.689 33.588-3.917 47.804-9.122 15.07-24.451 18.76-39.932 24.47-10.11 3.728-21.145 8.236-29.586 15.03l-1.923 1.547-1.882-1.597zm-75.302-175.167c9.627 22.677 12.255 47.28 6.436 74.206-5.626 30.635-9.648 63.794 19.63 75.481 23.949 7.696 40.092 13.853 51.167 23.249 7.38-5.94 16.888-10.512 30.425-15.504 14.542-5.363 29.774-8.942 38.418-23.225 7.262-11.996 7.456-27.748 3.564-45.67-8.267-36.11-6.506-63.322 3.862-87.901-50.792-3.557-101.853-4.725-153.502-.636" fill="#231f20" fill-rule="evenodd"/><path d="M410.722 385.982c-22.974-24.561 20.394-14.348 8.477-4.743.121-8.088-17.448-10.478-8.477 4.743" fill="#00a650" fill-rule="evenodd"/><path d="M396.963 369.202l4.913 8.998 1.107-.852-6.02-8.146M434.619 381.129l8.338 6.04.63-1.238-8.968-4.802M376.289 372.485l6.774 12.402 1.524-1.173-8.298-11.23M377.796 419.605l22.506-10.476-2.252-.654-20.254 11.13M382.67 423.998l12.412-9.136-1.454-.122-10.958 9.258M384.8 412.002l-8.969 3.16 9.091-.972-.122-2.188M392.417 408.84c-.737 0-22.606 1.58-22.606 1.58l21.746.123.86-1.703M377.428 407.503c-.86-.73-9.706-2.675-9.706-2.675l7.495 4.134 2.211-1.46M386.397 405.922l-16.955-3.77 15.358 5.35 1.597-1.58" fill="#00a650" fill-rule="evenodd"/><path d="M410.108 405.922c-31.985 12.604-7.126 26.466 2.702 8.39-19.027 10.684-17.469.396-2.702-8.39" fill="#00a650" fill-rule="evenodd"/><path d="M454.365 253.34c-19.545 10.498-32.015 24.825-19.214 52.83 9.063-6.12 19.9-10.37 33.505-11.24-19.516-10.854-19.299-25.733-14.291-41.59" fill="#fff" fill-rule="evenodd"/><path d="M1333.053 1606.67c-124.39-67.51-203.75-159.64-122.28-339.73 57.68 39.35 126.65 66.68 213.23 72.28-124.2 69.8-122.82 165.48-90.95 267.45z" fill="none" stroke="#231f20" stroke-width="9.449" stroke-linecap="round" stroke-linejoin="round" stroke-miterlimit="22.926" transform="matrix(.15713 0 0 -.1555 244.903 503.189)"/><path d="M371.168 368.594l4.646 12.402 1.725-1.173-6.371-11.23" fill="#00a650" fill-rule="evenodd"/><path d="M350.363 259.407c-.224 32.601-1.353 64.755-2.558 96.872 7.327.305 14.044 1.915 18.445 8.495-2.42-35.303-4.46-70.606-6.392-105.91-2.35 3.308-5.696 2.794-9.495.543" fill="#e39125" fill-rule="evenodd"/><path d="M671.164 1567.65c-1.422-209.64-8.606-416.41-16.274-622.939 46.625-1.961 89.375-12.313 117.383-54.625-15.398 227.014-28.38 454.034-40.676 681.054-14.957-21.27-36.254-17.96-60.433-3.49z" fill="none" stroke="#231f20" stroke-width="16.668" stroke-miterlimit="22.926" transform="matrix(.15713 0 0 -.1555 244.903 503.189)"/><path d="M350.135 289.675c-.022.739 7.789 2.285 8.15 1.748-2.784.667-5.57.97-8.353.739l.203-2.487M350.135 296.362c-.022.739 7.789 2.285 8.15 1.748-2.784.667-5.57.969-8.353.739l.203-2.487M349.804 315.339c-.026.863 9.084 2.665 9.506 2.038-3.247.778-6.496 1.131-9.744.864l.238-2.902M349.074 341.545c-.027.863 9.083 2.665 9.506 2.039-3.248.777-6.496 1.13-9.744.863l.238-2.902M363.03 322.526c.033 1.084-11.406 3.348-11.937 2.56 4.079.977 8.158 1.42 12.236 1.084l-.3-3.644M364.233 343.624c.04 1.358-14.3 4.196-14.966 3.208 5.113 1.225 10.227 1.78 15.34 1.358l-.374-4.566" fill="#231f20" fill-rule="evenodd"/><path d="M361.752 297.043c.033 1.084-11.406 3.347-11.938 2.56 4.079.977 8.158 1.42 12.236 1.084l-.298-3.644M360.879 283.27c.028.938-9.874 2.897-10.334 2.216 3.53.846 7.062 1.229 10.592.938-.085-1.052-.172-2.103-.258-3.154M360.205 275.673c.022.73-7.698 2.258-8.056 1.727 2.753.659 5.506.958 8.258.73l-.202-2.457M360.022 265.914c.023.73-7.697 2.258-8.056 1.728 2.753.659 5.506.956 8.258.73l-.202-2.458M350.135 277.566c-.022.739 7.789 2.286 8.15 1.748-2.784.667-5.57.969-8.353.74l.203-2.488M351.048 267.806c-.022.74 7.788 2.285 8.151 1.748-2.785.667-5.57.97-8.355.74.069-.828.137-1.657.204-2.488M360.619 279.109c.017.555-5.85 1.715-6.122 1.312 2.092.5 4.184.728 6.275.555l-.153-1.867M360.619 269.53c.017.555-5.85 1.716-6.122 1.312 2.092.5 4.184.728 6.275.555l-.153-1.868" fill="#231f20" fill-rule="evenodd"/><path d="M426.26 403.058c-3.616 9.804 11.504 1.704 16.262-3.9-2.281.864-4.552 2.072-8.381 4.466-4.13 2.827-6.534 1.039-7.88-.566" fill="#00a650" fill-rule="evenodd"/><path d="M763.289 822.762l-22.868-27.438M837.605 769.598l-22.867-27.438M924.39 730.902l-12.363-33.507M753.57 742.16l-22.867-27.441M825.875 706.391l-11.985-33.649M916.453 686.449l-4.465-35.441M1033.743 675.996l.6-35.715" fill="none" stroke="#231f20" stroke-width="8.334" stroke-miterlimit="22.926" transform="matrix(.15713 0 0 -.1555 244.903 503.189)"/><path d="M448.174 338.848c3.366-3.774 7.662-6.302 16.442-2.83 4.45 1.342 8.779 2.211 12.272-.235-1.948 1.832-2.033 4.67-11.437 2.476-7.101-2.645-12.406-1.49-17.277.59M491.305 326.232c3.365-3.776 7.661-6.303 16.442-2.83 4.45 1.342 8.779 2.211 12.271-.237-1.948 1.832-2.033 4.67-11.437 2.478-7.1-2.645-12.405-1.49-17.276.59M398.49 343.602c2.775-3.113 6.316-5.198 13.555-2.332 3.67 1.105 7.238 1.822 10.123-.195-1.61 1.509-1.679 3.85-9.436 2.04-5.853-2.181-10.226-1.226-14.242.487M484.275 340.072c4.608 4.398 9.104 4.342 13.492-.162-4.92 2.719-5.9 3.101-13.492.162M460.207 351.038c4.609 4.398 9.106 4.343 13.493-.162-4.921 2.719-5.9 3.101-13.493.162M436.616 362.83c4.608 4.398 9.105 4.343 13.492-.162-4.92 2.719-5.9 3.101-13.492.162M408.021 351.038c4.607 4.398 9.106 4.343 13.493-.162-4.921 2.719-5.9 3.101-13.493.162" fill="#99d420" fill-rule="evenodd"/><path d="M390.269 343.492c4.607 4.397 9.104 4.342 13.491-.162-4.921 2.718-5.9 3.1-13.491.162M408.617 330.229c6.389 6.097 12.624 6.02 18.706-.224-6.823 3.77-8.18 4.3-18.706.224M435.544 338.837c6.389 6.098 12.624 6.022 18.706-.225-6.822 3.77-8.18 4.301-18.706.225M469.024 351.918c2.292-2.568 5.215-4.29 11.19-1.925 3.027.912 5.973 1.504 8.352-.161-1.328 1.247-1.384 3.178-7.786 1.685-4.83-1.799-8.44-1.014-11.756.401M493.806 340.008c2.293-2.567 5.215-4.29 11.19-1.925 3.027.912 5.973 1.504 8.352-.161-1.327 1.248-1.384 3.178-7.785 1.685-4.83-1.799-8.441-1.012-11.757.401M443.646 363.002c2.29-2.567 5.215-4.29 11.189-1.925 3.028.912 5.974 1.504 8.353-.161-1.328 1.247-1.384 3.178-7.786 1.684-4.83-1.798-8.44-1.012-11.756.402M416.242 351.21c2.291-2.567 5.215-4.29 11.191-1.925 3.026.913 5.972 1.504 8.35-.16-1.326 1.247-1.384 3.177-7.784 1.684-4.83-1.799-8.441-1.013-11.757.401M394.916 323.518c3.366-3.774 7.661-6.302 16.441-2.828 4.45 1.342 8.78 2.21 12.273-.237-1.948 1.832-2.034 4.67-11.439 2.478-7.099-2.647-12.405-1.49-17.275.587" fill="#99d420" fill-rule="evenodd"/><path d="M420.889 331.067c3.367-3.776 7.663-6.304 16.443-2.83 4.45 1.342 8.779 2.21 12.272-.237-1.948 1.832-2.033 4.67-11.44 2.476-7.098-2.644-12.404-1.488-17.275.59M458.54 322.34c3.366-3.774 7.662-6.303 16.442-2.83 4.448 1.343 8.779 2.21 12.272-.235-1.949 1.832-2.033 4.67-11.438 2.475-7.1-2.645-12.407-1.488-17.276.59" fill="#99d420" fill-rule="evenodd"/><path d="M445.553 321.634c6.672 6.366 13.185 6.287 19.54-.237-7.128 3.938-8.545 4.491-19.54.237M478.913 325.17c6.672 6.368 13.187 6.289 19.541-.235-7.129 3.938-8.545 4.491-19.54.235M381.571 323.508c6.388 6.099 12.623 6.02 18.706-.224-6.823 3.77-8.18 4.3-18.706.224" fill="#99d420" fill-rule="evenodd"/><path d="M459.194 174.04l17.144 1.726-12.844 11.37 3.638 16.671-14.895-8.578-14.895 8.577 3.639-16.67-12.846-11.37 17.145-1.726 6.957-15.604 6.957 15.604" fill="#231f20" fill-rule="evenodd"/><path d="M452.237 162.987l5.695 12.773 14.033 1.414-10.513 9.305 2.979 13.647-12.194-7.02-12.193 7.02 2.978-13.647-10.514-9.305 14.034-1.414 5.695-12.773" fill="#fff" fill-rule="evenodd"/><path d="M401.102 227.02l6.317 5.407-2.988-10.223s-3.329 4.646-3.329 4.816" fill="#00a650" fill-rule="evenodd"/><path d="M994.078 1775.92l40.205-34.77-19.018 65.74s-21.187-29.88-21.187-30.97zM970.328 1835.28c-11.664 6.98-6.157 28.42.937 33.81 9.184 6.96 13.715-9.7 9.82-16.76 0 0 15.825 24.88 22.235 18.4 2.402-2.42 3.433-5.01 3.898-7.51 1.485-8.04-.261-40.81-15.816-30.15 0 0-20.168 1.66-21.074 2.21z" fill="none" stroke="#231f20" stroke-width="8.334" stroke-miterlimit="22.926" transform="matrix(.15713 0 0 -.1555 244.903 503.189)"/><path d="M397.37 217.789c-1.833-1.085-.967-4.42.147-5.258 1.443-1.082 2.155 1.509 1.544 2.607 0 0 2.486-3.87 3.493-2.862.378.377.54.78.613 1.168.233 1.25-.041 6.346-2.485 4.689 0 0-3.17-.259-3.312-.344" fill="#fff200" fill-rule="evenodd"/><path d="M1037.823 1863.89c11.54-4.51 2.51-21.53-6.01-19.32 0 0 19.01-6.94 13.62-15.03-5.39-8.1-19.433-10.22-21.055-5.5-.308.89-17.16 9.53-22.214 8.32-16.371-3.9 2.57 44.45 35.659 31.53z" fill="none" stroke="#231f20" stroke-width="8.334" stroke-miterlimit="22.926" transform="matrix(.15713 0 0 -.1555 244.903 503.189)"/><path d="M407.976 213.34c1.813.701.394 3.348-.945 3.004 0 0 2.987 1.08 2.14 2.338-.847 1.26-3.053 1.589-3.308.855-.048-.139-2.696-1.482-3.49-1.294-2.573.607.403-6.912 5.603-4.903" fill="#fff200" fill-rule="evenodd"/><path d="M964.816 1809.55c-14.328 2.73-30.406-19.79-28.871-29.26 1.988-12.25 19.359-12.34 21.574-3.81 0 0-3.172-20.03 6.664-19.39 9.836.63 18.62 11.79 15.23 15.57-.64.72-10.398 24.38-8.566 29.25 0 0-4.918 7.42-6.031 7.64z" fill="none" stroke="#231f20" stroke-width="8.334" stroke-miterlimit="22.926" transform="matrix(.15713 0 0 -.1555 244.903 503.189)"/><path d="M396.504 221.79c-2.251-.424-4.778 3.078-4.536 4.55.312 1.905 3.041 1.92 3.39.593 0 0-.499 3.115 1.047 3.015 1.545-.098 2.926-1.833 2.393-2.421-.1-.112-1.634-3.791-1.346-4.549 0 0-.773-1.154-.948-1.188" fill="#fff200" fill-rule="evenodd"/><path d="M966.355 1834.96c-1.035 11.07-19.144 15.09-25.734 11.96-8.56-4.04 2.32-13.56 9.047-13.38 0 0-24.418-2.17-21.868-9.24 2.563-7.07 9.493-7.48 11.789-10.6 2.489-3.38 22.438-5.11 20.825 5.15 0 0 6.03 15.25 5.94 16.11z" fill="none" stroke="#231f20" stroke-width="8.334" stroke-miterlimit="22.926" transform="matrix(.15713 0 0 -.1555 244.903 503.189)"/><path d="M396.746 217.839c-.163-1.722-3.008-2.347-4.044-1.86-1.345.628.365 2.109 1.422 2.08 0 0-3.837.338-3.436 1.437.402 1.1 1.491 1.164 1.852 1.649.391.525 3.526.794 3.272-.801 0 0 .948-2.372.934-2.505" fill="#fff200" fill-rule="evenodd"/><path d="M978.496 1836.82c8.918 0 16.148-7.46 16.148-16.66s-7.23-16.66-16.148-16.66-16.15 7.46-16.15 16.66 7.232 16.66 16.15 16.66z" fill="none" stroke="#231f20" stroke-width="8.334" stroke-miterlimit="22.926" transform="matrix(.15713 0 0 -.1555 244.903 503.189)"/><path d="M398.654 217.55c1.4 0 2.537 1.16 2.537 2.59s-1.136 2.591-2.537 2.591c-1.402 0-2.538-1.16-2.538-2.59 0-1.431 1.136-2.592 2.538-2.592" fill="#fff200" fill-rule="evenodd"/><path d="M988.687 1769.25c11.344-4.16 24.168 10.79 20.234 26.31 34.062-23.7 34.232 45.17-13.601 33.44 3.44-12.76-4.984-29.15-19.715-29.63-4.477-8.44 2.879-26.37 13.082-30.12z" fill="none" stroke="#231f20" stroke-width="8.334" stroke-miterlimit="22.926" transform="matrix(.15713 0 0 -.1555 244.903 503.189)"/><path d="M400.255 228.057c1.782.647 3.797-1.678 3.18-4.091 5.351 3.685 5.378-7.025-2.138-5.2.54 1.984-.783 4.533-3.098 4.607-.703 1.313.453 4.101 2.056 4.684" fill="#fff200" fill-rule="evenodd"/><path d="M411.175 233.187c-2.013-2.211-1.999-6.293-.597-11.66 1.024 1.184 2.049 1.916 3.073 2.198 0 0 5.123-3.38 5.036-2.705.256.677 0 7.435-.34 7.435.88.255 1.764.507 2.645.76.374 1.358-9.252 5.095-9.817 3.972" fill="#00a650" fill-rule="evenodd"/><path d="M1058.183 1736.26c-12.81 14.22-12.72 40.47-3.8 74.98 6.52-7.61 13.04-12.32 19.56-14.13 0 0 32.6 21.73 32.05 17.39 1.63-4.35 0-47.81-2.17-47.81 5.61-1.64 11.23-3.26 16.84-4.89 2.38-8.73-58.88-32.76-62.48-25.54zM1040.803 1713.44l47.27 73.35M1070.723 1764.16l-6.56 23.47" fill="none" stroke="#231f20" stroke-width="8.334" stroke-miterlimit="22.926" transform="matrix(.15713 0 0 -.1555 244.903 503.189)"/><path d="M408.538 236.784c-.927-2.83-4.508-4.86-9.903-6.341.523 1.47.652 2.713.386 3.732 0 0-5.519 2.7-4.885 2.965.464.557 6.507 3.717 6.677 3.425l-.658 2.648c1 .998 9.084-5.384 8.383-6.429" fill="#00a650" fill-rule="evenodd"/><path d="M1041.403 1713.13c-5.9 18.2-28.69 31.25-63.025 40.78 3.329-9.45 4.149-17.45 2.454-24 0 0-35.121-17.36-31.086-19.07 2.953-3.58 41.41-23.9 42.492-22.02l-4.184-17.03c6.364-6.42 57.809 34.62 53.349 41.34zM981.707 1712.29l58.426-.41M999.558 1717.98l-5.48 21.84M1034.283 1747.67c2.71-5.43 10.87-25.54 25.53-34.77 14.67-9.24 32.06-2.17 36.41-11.95 4.34-9.78 4.89-12.5 4.89-12.5" fill="none" stroke="#231f20" stroke-width="8.334" stroke-miterlimit="22.926" transform="matrix(.15713 0 0 -.1555 244.903 503.189)"/><path d="M449.268 230.338c1.41-4.194-10.049-4.769-11.494-1.513 1.23-1.62.388-2.519-1.396-3.09 6.361-1.395 3.116-5.3-.664-9.336.705-.316 3.521-.633 4.228.483 3.578 5.658 5.311 3.644 4.543-3.77 4.751 6.007 5.3 3.235 5.248-.79 1.77 3.727 3.543 3.77 5.316.131-.02 4.813-.246 10.31 2.99 4.209-.3 4.814 1.648 6.21 6.31 3.484-1.961 2.719-1.384 4.998 1.33 5.984-.398.131-8.77 1.38-10.033 2.104-1.262.723-2.723.921-3.522 1.579-.796.658-3.056.525-2.856.525" fill="#00a650" fill-rule="evenodd"/><path d="M1300.613 1754.58c8.98 26.97-63.95 30.67-73.15 9.73 7.83 10.42 2.47 16.2-8.88 19.87 40.48 8.97 19.83 34.08-4.23 60.04 4.49 2.03 22.41 4.07 26.91-3.11 22.77-36.38 33.8-23.43 28.91 24.25 30.24-38.63 33.73-20.81 33.4 5.08 11.27-23.97 22.55-24.25 33.83-.85-.13-30.95-1.56-66.29 19.03-27.06-1.91-30.96 10.49-39.94 40.16-22.41-12.48-17.48-8.81-32.14 8.46-38.48-2.53-.84-55.81-8.87-63.85-13.53-8.03-4.65-17.33-5.92-22.41-10.15-5.07-4.23-19.45-3.38-18.18-3.38z" fill="none" stroke="#231f20" stroke-width="8.334" stroke-linecap="round" stroke-linejoin="round" stroke-miterlimit="22.926" transform="matrix(.15713 0 0 -.1555 244.903 503.189)"/><path d="M449.268 230.732c-1.345-1.874-5.831-3.6-10.563-.008-3.29 2.498-3.246.093-5.383.6 1.705 3.88 1.02 6.619-2.06 8.219 2.68 1.535 5.627 1.14 8.837-1.184-.177 1.579-.443 2.719-.796 3.42 3.197-1.132 6.621-5.976 9.833-8.218 0 0 1.395.197 1.327-.46-.066-.659-1.195-2.37-1.195-2.37" fill="#00a650" fill-rule="evenodd"/><path d="M1300.613 1752.05c-8.56 12.05-37.11 23.15-67.22.05-20.94-16.06-20.66-.6-34.26-3.86 10.85-24.95 6.49-42.56-13.11-52.85 17.06-9.87 35.81-7.33 56.24 7.61-1.13-10.15-2.82-17.48-5.07-21.99 20.35 7.28 42.14 38.43 62.58 52.85 0 0 8.88-1.27 8.45 2.96-.42 4.23-7.61 15.23-7.61 15.23z" fill="none" stroke="#231f20" stroke-width="8.334" stroke-linecap="round" stroke-linejoin="round" stroke-miterlimit="22.926" transform="matrix(.15713 0 0 -.1555 244.903 503.189)"/><path d="M452.523 231.85c-1.745 2.581 7.683 10.963 9.966 9.338l.067-2.17c4.147.81 6.926-.044 8.77-2.04-2.199-2.065-4.713-3.194-7.44-3.68.685-.768.84-.745 1.527-1.513-.17-1.838-13.207-2.216-12.89.065" fill="#00a650" fill-rule="evenodd"/><path d="M1321.333 1744.86c-11.11-16.6 48.89-70.5 63.42-60.05.15 4.65.29 9.31.43 13.96 26.39-5.21 44.08.28 55.81 13.11-13.99 13.28-29.99 20.54-47.35 23.67 4.36 4.94 5.35 4.79 9.72 9.73-1.08 11.82-84.05 14.25-82.03-.42z" fill="none" stroke="#231f20" stroke-width="8.334" stroke-linecap="round" stroke-linejoin="round" stroke-miterlimit="22.926" transform="matrix(.15713 0 0 -.1555 244.903 503.189)"/><path d="M1297.233 1730.9c-8.03 2.54-35.94 16.92-43.13 8.04-7.19-8.88-5.07-15.65-19.87-22.41-14.8-6.77-17.34-7.19-17.34-7.19M1334.443 1739.36c10.15-11.84 19.45-19.03 22.41-22.83" fill="none" stroke="#231f20" stroke-width="8.334" stroke-miterlimit="22.926" transform="matrix(.15713 0 0 -.1555 244.903 503.189)"/><path d="M1336.133 1736.82c3.8-1.27 14.37 5.5 27.06-5.92 12.69-11.41 13.53-12.68 25.37-14.79 11.84-2.12 21.57-1.27 23.68-2.12M1305.683 1765.57c-.84 2.54-4.64 24.95-13.95 32.98-9.3 8.04-16.91 11.84-13.1 16.92M1312.033 1829.85c.42-5.08 7.61-17.76 2.54-32.14-5.08-14.37-8.46-19.45-4.66-27.48 3.81-8.04 3.81-9.3 3.81-9.3M1338.243 1816.74s6.35-9.73-2.95-21.14c-9.31-11.42-16.07-12.69-18.61-22.41-2.54-9.73-2.96-14.8-2.96-14.8" fill="none" stroke="#231f20" stroke-width="8.334" stroke-miterlimit="22.926" transform="matrix(.15713 0 0 -.1555 244.903 503.189)"/><path d="M501.146 227.02l-6.317 5.407 2.989-10.223s3.328 4.646 3.328 4.816" fill="#00a650" fill-rule="evenodd"/><path d="M1630.773 1775.92l-40.2-34.77 19.02 65.74s21.18-29.88 21.18-30.97zM1654.523 1835.28c11.67 6.98 6.16 28.42-.94 33.81-9.18 6.96-13.71-9.7-9.81-16.76 0 0-15.83 24.88-22.24 18.4-2.4-2.42-3.43-5.01-3.9-7.51-1.48-8.04.27-40.81 15.82-30.15 0 0 20.17 1.66 21.07 2.21z" fill="none" stroke="#231f20" stroke-width="8.334" stroke-miterlimit="22.926" transform="matrix(.15713 0 0 -.1555 244.903 503.189)"/><path d="M504.877 217.789c1.834-1.085.968-4.42-.147-5.258-1.443-1.082-2.154 1.509-1.542 2.607 0 0-2.487-3.87-3.494-2.862-.377.377-.54.78-.613 1.168-.233 1.25.042 6.346 2.486 4.689 0 0 3.17-.259 3.31-.344" fill="#fff200" fill-rule="evenodd"/><path d="M1587.023 1863.89c-11.53-4.51-2.5-21.53 6.02-19.32 0 0-19.01-6.94-13.62-15.03 5.39-8.1 19.43-10.22 21.05-5.5.31.89 17.16 9.53 22.22 8.32 16.37-3.9-2.57 44.45-35.67 31.53z" fill="none" stroke="#231f20" stroke-width="8.334" stroke-miterlimit="22.926" transform="matrix(.15713 0 0 -.1555 244.903 503.189)"/><path d="M494.271 213.34c-1.811.701-.393 3.348.946 3.004 0 0-2.987 1.08-2.14 2.338.847 1.26 3.053 1.589 3.308.855.048-.139 2.696-1.482 3.491-1.294 2.572.607-.404-6.912-5.605-4.903" fill="#fff200" fill-rule="evenodd"/><path d="M1660.043 1809.55c14.32 2.73 30.4-19.79 28.87-29.26-1.99-12.25-19.36-12.34-21.58-3.81 0 0 3.17-20.03-6.66-19.39-9.84.63-18.63 11.79-15.23 15.57.64.72 10.4 24.38 8.56 29.25 0 0 4.92 7.42 6.04 7.64z" fill="none" stroke="#231f20" stroke-width="8.334" stroke-miterlimit="22.926" transform="matrix(.15713 0 0 -.1555 244.903 503.189)"/><path d="M505.745 221.79c2.25-.424 4.777 3.078 4.536 4.55-.313 1.905-3.042 1.92-3.39.593 0 0 .497 3.115-1.047 3.015-1.546-.098-2.927-1.833-2.393-2.421.1-.112 1.634-3.791 1.345-4.549 0 0 .773-1.154.949-1.188" fill="#fff200" fill-rule="evenodd"/><path d="M1658.493 1834.96c1.04 11.07 19.14 15.1 25.75 11.97 8.55-4.05-2.34-13.57-9.05-13.39 0 0 24.41-2.17 21.86-9.24-2.55-7.07-9.49-7.48-11.79-10.6-2.49-3.38-22.44-5.11-20.83 5.15 0 0-6.02 15.25-5.94 16.11z" fill="none" stroke="#231f20" stroke-width="8.334" stroke-miterlimit="22.926" transform="matrix(.15713 0 0 -.1555 244.903 503.189)"/><path d="M505.501 217.839c.164-1.722 3.008-2.348 4.046-1.862 1.344.63-.367 2.11-1.422 2.083 0 0 3.836.337 3.435 1.436-.4 1.1-1.491 1.164-1.852 1.649-.392.525-3.526.794-3.273-.801 0 0-.946-2.372-.934-2.505" fill="#fff200" fill-rule="evenodd"/><path d="M1646.363 1836.82c-8.92 0-16.15-7.46-16.15-16.66s7.23-16.66 16.15-16.66c8.91 0 16.14 7.46 16.14 16.66s-7.23 16.66-16.14 16.66z" fill="none" stroke="#231f20" stroke-width="8.334" stroke-miterlimit="22.926" transform="matrix(.15713 0 0 -.1555 244.903 503.189)"/><path d="M503.595 217.55c-1.401 0-2.537 1.16-2.537 2.59s1.136 2.591 2.537 2.591c1.4 0 2.536-1.16 2.536-2.59 0-1.431-1.136-2.592-2.536-2.592" fill="#fff200" fill-rule="evenodd"/><path d="M1636.163 1769.25c-11.34-4.16-24.16 10.79-20.23 26.31-34.06-23.7-34.23 45.17 13.6 33.44-3.44-12.76 4.98-29.15 19.72-29.63 4.47-8.44-2.89-26.37-13.09-30.12z" fill="none" stroke="#231f20" stroke-width="8.334" stroke-miterlimit="22.926" transform="matrix(.15713 0 0 -.1555 244.903 503.189)"/><path d="M501.993 228.057c-1.782.647-3.797-1.678-3.18-4.091-5.351 3.685-5.378-7.025 2.138-5.2-.54 1.984.782 4.533 3.098 4.607.703 1.313-.454 4.101-2.056 4.684" fill="#fff200" fill-rule="evenodd"/><path d="M491.072 233.187c2.013-2.211 1.999-6.293.599-11.66-1.025 1.184-2.05 1.916-3.074 2.198 0 0-5.122-3.38-5.037-2.705-.255.677.001 7.435.342 7.435-.883.255-1.764.507-2.647.76-.373 1.358 9.253 5.095 9.817 3.972" fill="#00a650" fill-rule="evenodd"/><path d="M1566.663 1736.26c12.81 14.22 12.72 40.47 3.81 74.98-6.52-7.61-13.04-12.32-19.56-14.13 0 0-32.6 21.73-32.06 17.39-1.62-4.35.01-47.81 2.18-47.81-5.62-1.64-11.23-3.26-16.85-4.89-2.37-8.73 58.89-32.76 62.48-25.54zM1584.053 1713.44l-47.27 73.35M1554.133 1764.16l6.55 23.47" fill="none" stroke="#231f20" stroke-width="8.334" stroke-miterlimit="22.926" transform="matrix(.15713 0 0 -.1555 244.903 503.189)"/><path d="M493.71 236.784c.927-2.83 4.508-4.86 9.903-6.341-.522 1.47-.652 2.713-.385 3.732 0 0 5.518 2.7 4.883 2.965-.463.557-6.505 3.717-6.676 3.425.218.883.438 1.766.658 2.648-1 .998-9.085-5.384-8.383-6.429" fill="#00a650" fill-rule="evenodd"/><path d="M1583.453 1713.13c5.9 18.2 28.69 31.25 63.02 40.78-3.32-9.45-4.15-17.45-2.45-24 0 0 35.12-17.36 31.08-19.07-2.95-3.58-41.4-23.9-42.49-22.02 1.39-5.68 2.79-11.36 4.19-17.03-6.37-6.42-57.82 34.62-53.35 41.34zM1643.153 1712.29l-58.43-.41M1625.303 1717.98l5.47 21.84M1590.573 1747.67c-2.72-5.43-10.87-25.54-25.53-34.77-14.68-9.24-32.06-2.17-36.41-11.95-4.34-9.78-4.89-12.5-4.89-12.5" fill="none" stroke="#231f20" stroke-width="8.334" stroke-miterlimit="22.926" transform="matrix(.15713 0 0 -.1555 244.903 503.189)"/><path d="M1292.593 1295.04c-5.55 1.23-27.74 9.86-27.74 9.86s12.33 16.03 8.63 15.41c-3.7-.61-14.8-16.64-14.8-16.64s-3.7 11.1-9.86 0c-6.17-11.1-10.48-10.48-10.48-15.42 0-4.93 9.86-3.7 9.86-11.09 0-7.4 3.7-17.27 4.32-14.18.61 3.08 4.31 18.49 4.31 18.49s9.25 0 10.48-4.31c1.24-4.32-1.84-1.24-2.46-16.65-.62-15.41 3.08-3.7 4.93 1.23 1.85 4.94 7.4 22.81 7.4 22.81l15.41 10.49z" fill="none" stroke="#231f20" stroke-width="8.334" stroke-linecap="round" stroke-linejoin="round" stroke-miterlimit="22.926" transform="matrix(.15713 0 0 -.1555 244.903 503.189)"/><path d="M448.008 301.8c-.873-.191-4.36-1.533-4.36-1.533s1.938-2.493 1.357-2.396c-.582.094-2.326 2.587-2.326 2.587s-.581-1.726-1.549 0c-.97 1.726-1.647 1.63-1.647 2.398 0 .767 1.55.576 1.55 1.725 0 1.15.58 2.685.678 2.205.096-.48.678-2.875.678-2.875s1.453 0 1.646.67c.195.672-.289.193-.386 2.589-.098 2.396.484.575.774-.191.291-.769 1.163-3.547 1.163-3.547l2.422-1.632" fill="#231f20" fill-rule="evenodd"/><path d="M1325.273 1306.13c0-9.24 3.08-11.71 8.63-15.41 5.55-3.7 9.25 0 9.25-8.01 0-8.02-9.87-14.19-9.87-19.12 0-4.93 17.27 3.09 17.27 6.79 0 3.69-.62 14.17 3.08 4.93 3.7-9.25 9.86-4.32 9.86 4.31 0 8.63-6.78 27.13-11.71 29.59-4.93 2.47-16.65 6.17-17.88 3.09-1.23-3.09-10.48-7.4-8.63-6.17z" fill="none" stroke="#231f20" stroke-width="8.334" stroke-linecap="round" stroke-linejoin="round" stroke-miterlimit="22.926" transform="matrix(.15713 0 0 -.1555 244.903 503.189)"/><path d="M453.143 300.076c0 1.437.483 1.82 1.356 2.396.872.575 1.453 0 1.453 1.246 0 1.247-1.55 2.206-1.55 2.973 0 .767 2.713-.48 2.713-1.056 0-.574-.098-2.203.484-.767.581 1.439 1.549.672 1.549-.67s-1.065-4.219-1.84-4.601c-.775-.384-2.616-.96-2.81-.48-.193.48-1.646 1.15-1.355.959" fill="#231f20" fill-rule="evenodd"/><path d="M1412.823 1246.95c-4.26 27.84-23.74 48.17-55.49 61.65-1.21.51-4.07 1.6-3.08 2.46 3.79 3.35 9.04 4.53 13.56 6.79 0 0-1.85 4.32-8.63 4.32-6.78 0-15.41.61-15.41.61-2.06 4.72-1.04 11.31-3.09 16.03 0 0-19.73.62-19.73-6.17 0-6.78 1.23-9.24 1.23-12.33 0-3.08-13.56-14.18-13.56-14.18s8.02.62 16.65 1.24c8.63.61 16.03-.62 16.03-.62s6.17-6.78 6.78-12.34c.62-5.54 12.33-7.39 12.33-13.55 0-6.17 1.24-9.25 1.24-14.8 0-5.56 12.32.61 12.32.61 5.96-2.05 23.36-3.03 17.89-6.17-6.52-3.71-15.71 7.46-22.2 3.71-5.92-3.41-3.7-13.15-5.55-19.73 0 0 13.56-3.08 17.26-3.08 3.7 0 31.74 3.62 31.45 5.55z" fill="none" stroke="#231f20" stroke-width="8.334" stroke-linecap="round" stroke-linejoin="round" stroke-miterlimit="22.926" transform="matrix(.15713 0 0 -.1555 244.903 503.189)"/><path d="M466.9 309.279c-.67-4.33-3.731-7.491-8.72-9.587-.19-.08-.64-.25-.484-.383.596-.52 1.42-.704 2.13-1.056 0 0-.29-.672-1.355-.672a41.85 41.85 0 01-2.422-.094c-.323-.734-.163-1.76-.485-2.493 0 0-3.1-.097-3.1.96 0 1.054.193 1.436.193 1.917 0 .479-2.13 2.205-2.13 2.205s1.26-.097 2.616-.193a12.144 12.144 0 012.518.096s.97 1.055 1.066 1.92c.097.86 1.937 1.148 1.937 2.106 0 .96.195 1.439.195 2.302 0 .865 1.936-.095 1.936-.095.936.319 3.67.471 2.81.96-1.024.576-2.468-1.16-3.487-.577-.93.53-.582 2.045-.873 3.068 0 0 2.131.479 2.713.479.58 0 4.987-.563 4.941-.863" fill="#e39125" fill-rule="evenodd"/><path d="M1270.403 1288.87c2.42-8.49 4.31-34.53 4.31-34.53s4.32-1.84 8.63 1.86c4.32 3.69 8.64 22.19 8.64 22.19l19.72-4.32s-12.94-20.96-12.94-24.04c0-3.08 10.48 1.23 14.18 4.93 3.7 3.7 16.03 22.2 16.03 22.2-7.61 2.88-15.21 5.75-22.81 8.63 0 0-17.27 9.25-20.35 10.48-3.42 1.37-22.4 8.02-22.2 6.16 0 0 6.62-12.97 6.79-13.56z" fill="none" stroke="#231f20" stroke-width="8.334" stroke-linecap="round" stroke-linejoin="round" stroke-miterlimit="22.926" transform="matrix(.15713 0 0 -.1555 244.903 503.189)"/><path d="M444.52 302.76c.381 1.32.678 5.37.678 5.37s.679.286 1.356-.29c.679-.574 1.358-3.45 1.358-3.45l3.098.671s-2.033 3.26-2.033 3.739c0 .479 1.647-.192 2.228-.767.582-.575 2.519-3.452 2.519-3.452l-3.584-1.342s-2.714-1.439-3.198-1.63c-.537-.213-3.52-1.247-3.488-.958 0 0 1.04 2.017 1.067 2.109M420.592 310.717c1.066 1.342 4.262 2.493 4.262 2.493l57.054.16 1.556-2.75s-62.968 0-62.872.097" fill="#e39125" fill-rule="evenodd"/><path d="M1118.113 1237.7c6.79-8.63 27.13-16.03 27.13-16.03l363.1-1.03 9.9 17.68s-400.74 0-400.13-.62z" fill="none" stroke="#231f20" stroke-width="8.334" stroke-linecap="round" stroke-linejoin="round" stroke-miterlimit="22.926" transform="matrix(.15713 0 0 -.1555 244.903 503.189)"/><path d="M1269.783 1262.36c-3.08-5.55-9.25-11.1-6.17-18.5 3.09-7.4 1.86-10.48 1.86-23.43v-24.66M1283.343 1267.29s7.4-14.18 7.4-33.29v-33.91M1301.843 1267.29s1.23-24.66 1.23-38.84v-27.13M1327.123 1300.74s3.7.46 5.55-3.85c1.85-4.32 3.7-4.32 6.16-8.64 2.47-4.31 3.08-6.16-4.31-14.18-7.4-8.01-28.98-33.29-28.98-33.29s2.46-14.8 2.46-22.81v-23.43" fill="none" stroke="#231f20" stroke-width="8.334" stroke-linecap="round" stroke-linejoin="round" stroke-miterlimit="22.926" transform="matrix(.15713 0 0 -.1555 244.903 503.189)"/><path d="M1327.123 1298.47c9.25-12.33 14.18-6.52 15.41-13.92 1.24-7.39-6.78-8.01-13.56-20.96-6.79-12.95-12.95-25.27-12.95-25.27l2.46-30.21.62-8.02M1327.123 1251.88l3.08-52.41M1332.673 1263.59l9.24-65.96M1353.633 1248.8s-2.47-32.07-2.47-37v-17.26M1360.413 1246.95s3.7-22.2 3.7-29.6v-21.58M1369.043 1245.71c0-3.69 5.55-25.28 4.93-30.21-.61-4.93-1.84-16.03-1.84-16.03" fill="none" stroke="#231f20" stroke-width="8.334" stroke-linecap="round" stroke-linejoin="round" stroke-miterlimit="22.926" transform="matrix(.15713 0 0 -.1555 244.903 503.189)"/><path d="M430.81 293.257l-2.247.303c1.397 4.479 2.79 8.957 4.186 13.436l-.307 2.424 4.491.101c1.43-.908 2.858-1.818 4.288-2.727l-7.145-1.414 1.53-1.718c-2.094-1.283-3.283-4.804-4.287-8.788l-.51-1.617" fill="#231f20" fill-rule="evenodd"/></g></svg>